<?xml version="1.0" standalone="no"?>
<!DOCTYPE svg PUBLIC "-//W3C//DTD SVG 20010904//EN"
 "http://www.w3.org/TR/2001/REC-SVG-20010904/DTD/svg10.dtd">
<svg version="1.0" xmlns="http://www.w3.org/2000/svg"
 width="1024.000000pt" height="1024.000000pt" viewBox="0 0 1024.000000 1024.000000"
 preserveAspectRatio="xMidYMid meet">
<metadata>
Created by potrace 1.14, written by Peter Selinger 2001-2017
</metadata>
<g transform="translate(0.000000,1024.000000) scale(0.100000,-0.100000)"
fill="#000000" stroke="none">
<path d="M3655 9981 c-3 -5 -2 -12 3 -15 5 -3 9 1 9 9 0 17 -3 19 -12 6z"/>
<path d="M3725 9980 c-3 -6 1 -7 9 -4 18 7 21 14 7 14 -6 0 -13 -4 -16 -10z"/>
<path d="M3773 9958 c-1 -10 3 -21 9 -24 6 -4 9 -1 6 7 -3 8 4 19 16 26 20 11
20 11 -5 10 -16 -1 -26 -8 -26 -19z"/>
<path d="M3853 9962 c-8 -14 -8 -19 1 -19 7 0 13 9 13 19 1 10 1 18 0 18 -1 0
-7 -8 -14 -18z"/>
<path d="M3696 9955 c-3 -9 -10 -13 -16 -10 -5 3 -10 1 -10 -5 0 -6 -5 -8 -12
-4 -6 4 -8 3 -5 -3 4 -6 -2 -18 -13 -28 -16 -15 -22 -15 -35 -5 -19 16 -20 4
-1 -15 10 -10 16 -11 25 -2 8 8 11 8 11 -1 0 -7 -5 -12 -11 -12 -5 0 -7 -4 -4
-10 4 -6 -1 -7 -11 -3 -13 5 -15 3 -9 -7 5 -8 4 -11 -3 -6 -6 4 -8 14 -5 24 3
9 4 15 2 12 -35 -41 -43 -54 -26 -41 9 7 17 9 17 5 0 -10 -39 -38 -55 -39 -5
-1 -9 -7 -7 -14 1 -7 -2 -10 -8 -6 -5 3 -10 1 -10 -6 0 -17 -13 -2 -16 17 -2
10 3 14 11 10 8 -3 17 0 21 6 4 7 3 8 -4 4 -14 -8 -15 3 -3 23 7 11 10 9 16
-8 3 -12 11 -18 17 -15 7 4 6 9 -1 13 -8 5 -5 13 9 26 11 10 20 25 20 34 0 10
-5 7 -13 -9 -7 -14 -20 -25 -29 -25 -15 0 -67 -55 -60 -63 2 -2 1 -6 -2 -9 -3
-4 -6 -1 -6 7 0 10 -3 10 -15 0 -8 -6 -19 -9 -24 -6 -5 4 -13 1 -17 -5 -4 -8
-3 -9 4 -5 7 4 12 1 12 -8 0 -20 -4 -20 -38 0 -18 11 -22 12 -10 2 10 -8 15
-18 12 -21 -3 -3 6 -4 21 -3 20 3 25 0 21 -13 -4 -11 -1 -9 9 4 9 11 19 19 23
18 4 -2 7 1 7 6 0 5 3 13 8 17 4 4 7 0 7 -8 0 -15 -56 -68 -72 -68 -4 0 -5 7
-2 15 4 10 0 15 -12 15 -16 0 -17 -2 -4 -10 13 -8 12 -10 -2 -10 -10 0 -18 -4
-18 -10 0 -5 7 -6 17 -3 11 4 14 3 9 -5 -4 -7 -2 -10 6 -9 7 2 10 2 5 0 -4 -3
-4 -9 -1 -15 4 -5 -4 -4 -17 3 -22 11 -23 11 -10 -4 12 -16 8 -22 -13 -18 -4
1 -15 -4 -23 -11 -14 -11 -15 -10 -8 11 5 16 4 21 -4 17 -6 -4 -11 -13 -11
-21 0 -8 -9 -20 -20 -28 -20 -14 -20 -15 -3 -21 12 -5 23 0 34 13 9 11 20 17
24 13 5 -4 5 -1 0 7 -5 9 -4 12 3 7 17 -10 15 -26 -4 -26 -10 0 -14 -5 -10
-16 4 -10 2 -13 -6 -8 -7 5 -9 2 -6 -7 4 -10 -1 -15 -15 -17 -18 -1 -19 1 -7
9 13 9 13 10 0 6 -8 -2 -23 5 -34 15 -22 20 -36 23 -36 7 0 -5 4 -8 9 -5 4 3
19 -6 32 -21 23 -25 23 -25 2 -19 -12 4 -24 2 -28 -3 -4 -7 1 -8 12 -4 14 5
12 0 -7 -20 l-25 -26 -12 22 c-7 12 -12 17 -13 10 0 -6 12 -25 26 -42 14 -17
21 -31 16 -31 -5 0 -15 7 -22 15 -7 8 -17 15 -23 15 -6 0 -2 -6 9 -14 10 -8
19 -23 19 -33 0 -11 6 -17 16 -15 9 1 16 -4 16 -12 0 -9 -8 -13 -24 -10 -16 3
-23 0 -23 -11 0 -8 5 -15 11 -15 5 0 7 4 4 10 -3 6 1 7 9 4 12 -4 13 -11 6
-24 -5 -9 -6 -20 -3 -24 3 -3 1 -6 -5 -6 -6 0 -14 5 -17 10 -3 6 -1 10 6 10 7
0 9 3 6 6 -4 4 -13 2 -20 -5 -8 -6 -23 -9 -33 -5 -18 5 -18 5 -1 -6 9 -6 22
-8 27 -5 6 3 13 -1 16 -9 3 -9 11 -13 18 -9 6 4 5 -1 -3 -10 -7 -9 -10 -17 -5
-17 5 0 2 -5 -6 -10 -13 -9 -13 -11 0 -21 13 -9 12 -10 -2 -5 -10 3 -18 1 -18
-4 0 -5 -7 -7 -15 -4 -8 4 -15 1 -15 -6 0 -6 5 -8 11 -4 7 4 10 1 7 -7 -3 -8
-10 -14 -17 -14 -13 0 -31 -24 -30 -40 0 -5 6 1 14 15 7 14 17 24 22 24 16 -3
33 8 27 17 -3 5 -1 9 5 9 14 0 19 -23 9 -42 -6 -13 -5 -18 4 -18 8 0 9 -3 3
-8 -13 -9 -16 -42 -3 -42 5 0 2 -7 -6 -16 -9 -8 -14 -20 -10 -25 3 -6 1 -16
-5 -23 -9 -10 -7 -15 5 -20 9 -4 19 -4 22 -1 3 3 1 5 -5 5 -6 0 -10 11 -9 25
1 33 12 32 19 -2 13 -65 13 -66 -10 -68 -30 -2 -38 -11 -18 -19 9 -3 13 -2 10
4 -3 6 -2 10 3 10 17 0 22 -13 9 -28 -9 -13 -9 -14 1 -8 18 11 15 -14 -5 -37
-17 -19 -17 -19 4 -7 24 16 35 54 20 69 -8 8 -8 11 -1 11 6 0 19 -18 29 -40
10 -21 33 -53 51 -70 19 -17 34 -35 34 -41 0 -6 5 -7 10 -4 6 3 10 -2 10 -12
0 -14 2 -15 9 -5 7 11 9 11 14 -2 4 -9 10 -15 14 -14 4 1 26 -7 48 -19 35 -18
113 -38 131 -33 4 1 11 -4 15 -12 7 -11 9 -10 9 1 0 12 2 12 13 -1 9 -12 17
-13 32 -7 18 8 18 9 -3 5 -13 -3 -21 -2 -17 2 4 4 22 7 41 7 30 1 38 -5 36
-26 -1 -3 6 -6 14 -6 8 0 14 4 14 9 0 4 -5 8 -11 8 -19 0 -4 33 16 36 43 5 71
15 95 32 14 11 33 18 43 16 9 -1 17 3 17 9 1 7 25 28 55 47 29 19 52 36 50 39
-3 2 7 12 21 23 27 22 57 18 48 -6 -6 -16 -25 -17 -35 -2 -4 5 -10 -1 -13 -12
-4 -12 -16 -24 -27 -27 -10 -4 -17 -11 -14 -16 3 -5 -2 -6 -12 -3 -16 6 -15 4
2 -10 15 -14 16 -16 3 -13 -11 4 -15 0 -13 -11 1 -9 -3 -21 -9 -25 -7 -6 -7
-7 2 -5 8 2 13 7 12 12 -1 5 4 12 12 17 7 5 14 13 14 19 1 5 2 15 3 21 0 5 6
7 11 4 6 -4 8 -10 6 -14 -3 -4 0 -13 5 -21 6 -10 8 -4 4 20 -5 28 -4 33 6 23
16 -16 29 -17 29 -3 0 5 -5 9 -11 7 -6 -1 -13 3 -16 9 -7 20 41 10 54 -11 15
-25 17 -11 2 16 -9 17 -5 26 25 55 19 19 31 34 26 34 -5 0 -12 -4 -15 -10 -3
-5 -10 -10 -16 -10 -5 0 -4 9 3 19 7 11 15 18 18 16 3 -2 6 5 7 15 2 18 1 18
-16 1 -10 -10 -20 -24 -23 -33 -4 -8 -16 -18 -28 -21 -18 -5 -17 -1 9 25 17
17 28 36 24 41 -3 6 -1 7 4 4 14 -9 37 19 27 34 -4 7 -3 9 3 6 8 -5 47 63 48
85 0 4 5 12 11 18 9 9 14 9 19 -1 6 -8 4 -10 -5 -4 -9 6 -11 4 -5 -5 6 -9 4
-11 -5 -5 -9 5 -11 4 -6 -3 8 -13 46 6 46 23 0 5 4 3 10 -5 5 -8 12 -11 17 -7
11 11 -19 28 -32 17 -6 -4 -15 -2 -23 6 -8 9 -9 14 -2 14 6 0 8 5 5 10 -3 6
-2 10 4 10 5 0 10 8 10 18 -1 32 9 57 20 55 6 -2 11 0 12 5 0 4 2 15 4 25 2 9
-1 15 -6 11 -5 -3 -9 -1 -9 4 0 6 15 9 32 8 25 -1 33 3 34 17 1 12 1 13 -3 2
-2 -8 -8 -13 -13 -10 -5 3 -7 13 -4 23 5 16 5 16 -6 0 -12 -19 -40 -25 -40 -9
0 6 5 13 12 17 7 5 8 2 3 -7 -7 -12 -5 -12 6 -1 9 9 10 15 3 20 -6 4 -10 30
-9 57 1 28 -1 55 -4 60 -3 6 -6 24 -6 40 0 17 -4 36 -9 43 -4 7 -5 16 -1 20
11 11 24 -20 20 -50 -2 -16 1 -27 7 -25 6 1 13 -5 15 -13 4 -12 3 -12 -5 -1
-7 9 -12 10 -16 2 -6 -10 6 -15 27 -12 4 0 7 -3 7 -9 0 -5 5 -10 11 -10 6 0 4
9 -5 22 -11 15 -12 26 -5 40 6 12 6 18 -1 18 -5 0 -10 -8 -10 -17 0 -13 -3
-14 -12 -5 -8 8 -8 15 2 27 9 11 9 15 1 15 -7 0 -9 5 -6 10 3 6 1 10 -5 10 -6
0 -9 4 -6 8 3 5 -4 8 -14 8 -11 -1 -19 1 -18 4 1 3 -4 16 -11 29 -10 19 -10
22 0 16 7 -5 10 -4 5 3 -3 6 -2 13 4 17 5 3 10 1 10 -5 0 -6 5 -8 11 -4 8 4 7
9 -2 15 -8 4 -18 4 -23 -1 -13 -13 -36 -13 -36 0 0 6 6 9 12 8 18 -4 16 25 -2
29 -13 4 -13 3 0 -6 8 -5 12 -12 9 -16 -9 -9 -49 31 -49 49 0 9 -5 16 -11 16
-5 0 -7 -6 -4 -12 4 -7 -5 -1 -19 15 -14 15 -30 27 -36 27 -5 0 -10 5 -10 11
0 5 -4 7 -10 4 -5 -3 -10 -2 -10 3 0 9 -100 60 -107 54 -2 -2 -14 3 -27 12
-17 11 -26 12 -35 3 -8 -8 -11 -7 -11 4 0 12 -2 12 -11 -1 -8 -12 -10 -10 -5
10 5 24 4 24 -10 5 -16 -22 -68 -30 -60 -9 3 8 0 11 -9 8 -8 -3 -11 -12 -8
-19 3 -10 -2 -13 -17 -10 -26 5 -23 3 -38 30 -9 17 -10 17 -9 -7 1 -14 5 -24
10 -21 4 2 7 -1 7 -7 0 -6 -8 -10 -18 -8 -11 2 -25 -2 -33 -9 -14 -11 -34 -16
-58 -14 -11 1 -10 5 4 21 25 28 43 25 19 -2 -12 -14 -13 -18 -3 -10 9 6 18 9
22 6 3 -3 4 2 3 13 -2 10 1 24 7 31 5 7 8 15 5 18 -3 3 -8 -2 -12 -11z m-229
-188 c0 -8 -6 -14 -14 -14 -14 0 -17 10 -6 20 10 11 20 8 20 -6z m-132 -156
c-3 -6 -11 -11 -17 -11 -6 0 -6 6 2 15 14 17 26 13 15 -4z m-5 -68 c-1 -11
-26 -43 -33 -43 -4 0 -4 8 0 18 5 14 3 13 -10 -3 -9 -11 -17 -15 -17 -8 0 6
10 19 22 27 24 17 38 20 38 9z m-40 -70 c0 -12 -5 -25 -11 -29 -7 -4 -10 -1
-7 7 3 8 -1 22 -9 31 -14 15 -13 17 6 15 15 -1 21 -8 21 -24z m835 -502 c-3
-6 -11 -8 -17 -5 -6 4 -5 9 3 15 16 10 23 4 14 -10z"/>
<path d="M3710 9928 c-12 -22 -12 -22 6 -6 10 10 15 20 12 24 -4 3 -12 -5 -18
-18z"/>
<path d="M3616 9925 c-3 -8 -1 -15 4 -15 6 0 10 7 10 15 0 8 -2 15 -4 15 -2 0
-6 -7 -10 -15z"/>
<path d="M3533 9911 c0 -11 5 -18 9 -15 4 3 5 11 1 19 -7 21 -12 19 -10 -4z"/>
<path d="M3474 9872 c-10 -15 -8 -18 7 -19 10 -1 21 2 24 8 3 5 -1 6 -10 3
-11 -5 -14 -2 -9 10 8 21 2 20 -12 -2z"/>
<path d="M3540 9880 c-9 -6 -10 -10 -3 -10 6 0 15 5 18 10 8 12 4 12 -15 0z"/>
<path d="M3415 9860 c-3 -5 -1 -10 4 -10 6 0 11 5 11 10 0 6 -2 10 -4 10 -3 0
-8 -4 -11 -10z"/>
<path d="M3390 9825 c0 -7 30 -13 34 -7 3 4 -4 9 -15 9 -10 1 -19 0 -19 -2z"/>
<path d="M3435 9810 c-3 -5 -1 -10 4 -10 6 0 11 5 11 10 0 6 -2 10 -4 10 -3 0
-8 -4 -11 -10z"/>
<path d="M3354 9753 c2 -9 8 -18 15 -19 6 -1 7 0 1 3 -5 2 -8 9 -5 13 3 5 1
11 -4 14 -5 4 -8 -2 -7 -11z"/>
<path d="M3319 9728 c15 -21 31 -23 31 -6 0 6 -3 8 -7 5 -3 -4 -13 -1 -22 6
-14 11 -14 10 -2 -5z"/>
<path d="M4296 9713 c-6 -14 -5 -15 5 -6 7 7 10 15 7 18 -3 3 -9 -2 -12 -12z"/>
<path d="M4269 9708 c-10 -33 1 -52 16 -28 3 6 1 10 -5 10 -6 0 -8 5 -5 10 3
6 4 10 1 10 -3 0 -6 -1 -7 -2z"/>
<path d="M3350 9690 c0 -5 5 -10 10 -10 6 0 10 5 10 10 0 6 -4 10 -10 10 -5 0
-10 -4 -10 -10z"/>
<path d="M3313 9669 c-2 -23 3 -25 10 -4 4 8 3 16 -1 19 -4 3 -9 -4 -9 -15z"/>
<path d="M4307 9674 c2 -6 14 -14 26 -18 20 -5 20 -4 5 8 -10 7 -16 15 -13 18
3 2 -1 5 -9 5 -8 0 -12 -6 -9 -13z"/>
<path d="M3285 9639 c-4 -6 -4 -13 -1 -16 3 -4 6 -1 6 6 0 7 5 9 12 5 7 -4 8
-3 4 4 -9 15 -13 15 -21 1z"/>
<path d="M4380 9620 c-9 -6 -10 -10 -3 -10 6 0 15 5 18 10 8 12 4 12 -15 0z"/>
<path d="M4350 9591 c0 -6 4 -13 10 -16 6 -3 7 1 4 9 -7 18 -14 21 -14 7z"/>
<path d="M3230 9568 c0 -7 4 -19 9 -27 7 -10 9 -7 8 12 -2 26 -17 39 -17 15z"/>
<path d="M3194 9546 c1 -8 5 -18 8 -22 4 -3 5 1 4 10 -1 8 -5 18 -8 22 -4 3
-5 -1 -4 -10z"/>
<path d="M4310 9522 c0 -7 6 -12 13 -12 8 0 7 -3 -3 -10 -8 -5 -11 -12 -7 -16
4 -4 2 -13 -3 -19 -7 -9 -6 -16 5 -25 10 -9 15 -9 15 -1 0 6 -6 11 -12 11 -10
0 -9 3 1 9 7 5 11 13 7 19 -3 6 -2 13 3 16 5 4 12 -2 14 -11 4 -15 5 -15 6 -2
0 9 -8 24 -19 34 -11 10 -20 13 -20 7z"/>
<path d="M4355 9521 c-3 -5 -2 -12 3 -15 5 -3 9 1 9 9 0 17 -3 19 -12 6z"/>
<path d="M3186 9498 c3 -5 10 -6 15 -3 13 9 11 12 -6 12 -8 0 -12 -4 -9 -9z"/>
<path d="M4360 9486 c0 -2 8 -10 18 -17 15 -13 16 -12 3 4 -13 16 -21 21 -21
13z"/>
<path d="M3200 9465 c14 -7 24 -16 22 -19 -2 -4 -1 -12 2 -19 2 -6 4 -2 2 11
-2 23 -21 42 -41 41 -5 0 1 -6 15 -14z"/>
<path d="M3182 9440 c7 -11 17 -20 22 -20 5 0 1 9 -9 20 -10 11 -20 20 -22 20
-2 0 2 -9 9 -20z"/>
<path d="M4350 9451 c13 -10 13 -12 0 -22 -13 -9 -13 -10 0 -6 8 2 15 10 15
17 0 7 -7 15 -15 17 -13 4 -13 3 0 -6z"/>
<path d="M4371 9407 c-13 -21 -12 -21 5 -5 10 10 16 20 13 22 -3 3 -11 -5 -18
-17z"/>
<path d="M3170 9401 c0 -4 11 -7 25 -7 14 0 25 3 25 7 0 3 -11 7 -25 7 -14 0
-25 -4 -25 -7z"/>
<path d="M3153 9383 c4 -3 1 -13 -6 -22 -11 -14 -10 -14 5 -2 16 12 16 31 1
31 -4 0 -3 -3 0 -7z"/>
<path d="M4395 9380 c3 -5 8 -10 11 -10 2 0 4 5 4 10 0 6 -5 10 -11 10 -5 0
-7 -4 -4 -10z"/>
<path d="M4355 9369 c-4 -6 -5 -12 -2 -15 2 -3 7 2 10 11 7 17 1 20 -8 4z"/>
<path d="M4315 9351 c3 -5 0 -13 -6 -16 -5 -4 -8 -13 -5 -21 7 -17 -6 -18 -22
-2 -8 8 -10 5 -6 -16 3 -21 1 -26 -8 -20 -10 6 -9 3 1 -9 15 -18 26 -23 16 -7
-3 6 -1 10 5 10 6 0 8 5 5 11 -4 6 0 9 11 7 14 -2 18 5 20 35 1 20 -2 37 -7
37 -6 0 -8 -4 -4 -9z"/>
<path d="M3134 9329 c-3 -6 -2 -15 3 -20 5 -5 9 -1 9 11 0 23 -2 24 -12 9z"/>
<path d="M3210 9320 c0 -6 -4 -8 -10 -5 -5 3 -10 1 -10 -4 0 -13 34 -9 38 4 2
5 -1 11 -7 13 -6 2 -11 -1 -11 -8z"/>
<path d="M4370 9320 c-9 -6 -10 -10 -3 -10 6 0 15 5 18 10 8 12 4 12 -15 0z"/>
<path d="M4346 9297 c3 -10 9 -15 12 -12 3 3 0 11 -7 18 -10 9 -11 8 -5 -6z"/>
<path d="M3181 9281 c-10 -7 -7 -9 12 -8 15 1 27 5 27 10 0 10 -22 9 -39 -2z"/>
<path d="M3151 9253 c7 -10 15 -20 16 -22 2 -2 3 3 3 11 0 9 -7 19 -16 22 -15
6 -15 4 -3 -11z"/>
<path d="M4297 9250 c-9 -11 -13 -20 -7 -20 5 0 14 9 20 20 6 11 9 20 8 20 -2
0 -11 -9 -21 -20z"/>
<path d="M4256 9233 c-6 -14 -5 -15 5 -6 7 7 10 15 7 18 -3 3 -9 -2 -12 -12z"/>
<path d="M3211 9209 c-26 -21 -18 -46 9 -29 12 8 12 10 1 10 -11 0 -10 5 4 20
23 25 17 25 -14 -1z"/>
<path d="M4310 9220 c0 -5 5 -10 10 -10 6 0 10 5 10 10 0 6 -4 10 -10 10 -5 0
-10 -4 -10 -10z"/>
<path d="M3139 9218 c-5 -18 -6 -38 -1 -34 7 8 12 36 6 36 -2 0 -4 -1 -5 -2z"/>
<path d="M4255 9169 c-4 -6 -13 -8 -19 -6 -7 3 -18 -3 -24 -14 -11 -17 -9 -17
26 2 44 25 49 29 34 29 -6 0 -14 -5 -17 -11z"/>
<path d="M4330 9176 c0 -2 8 -10 18 -17 15 -13 16 -12 3 4 -13 16 -21 21 -21
13z"/>
<path d="M3134 9158 c-5 -7 44 -3 52 5 3 3 -7 4 -21 3 -15 0 -29 -4 -31 -8z"/>
<path d="M3220 9161 c0 -7 -4 -10 -9 -6 -12 7 -43 -24 -36 -36 11 -17 32 -9
44 17 6 15 9 29 6 32 -3 3 -5 0 -5 -7z m-15 -30 c-3 -6 -11 -11 -17 -11 -6 0
-6 6 2 15 14 17 26 13 15 -4z"/>
<path d="M4272 9151 c-11 -7 -10 -9 3 -14 11 -5 14 -3 9 5 -5 8 -2 9 10 5 10
-4 15 -3 11 3 -7 12 -16 12 -33 1z"/>
<path d="M4210 9119 c-20 -16 -20 -18 -4 -10 15 7 26 6 42 -5 15 -10 23 -11
28 -3 5 8 3 9 -5 5 -8 -5 -14 0 -18 13 -7 26 -11 26 -43 0z"/>
<path d="M4295 9120 c-3 -5 -1 -10 4 -10 6 0 11 5 11 10 0 6 -2 10 -4 10 -3 0
-8 -4 -11 -10z"/>
<path d="M3155 9100 c6 -30 16 -40 12 -12 -2 12 -6 24 -10 28 -3 4 -4 -4 -2
-16z"/>
<path d="M4356 9093 c-6 -14 -5 -15 5 -6 7 7 10 15 7 18 -3 3 -9 -2 -12 -12z"/>
<path d="M3193 9085 c0 -8 4 -12 9 -9 4 3 8 9 8 15 0 5 -4 9 -8 9 -5 0 -9 -7
-9 -15z"/>
<path d="M4220 9085 c14 -17 30 -20 30 -4 0 5 -4 7 -10 4 -5 -3 -10 -1 -10 4
0 6 -5 11 -11 11 -8 0 -8 -5 1 -15z"/>
<path d="M4179 9073 c-12 -16 -12 -17 2 -6 9 7 19 10 22 6 4 -3 -1 -11 -10
-18 -18 -13 -12 -45 9 -44 10 0 10 2 1 6 -7 2 -13 11 -13 18 0 17 27 27 34 12
3 -8 5 -8 5 -1 1 6 -7 18 -18 28 -17 15 -19 15 -32 -1z"/>
<path d="M4276 9073 c-6 -14 -5 -15 5 -6 7 7 10 15 7 18 -3 3 -9 -2 -12 -12z"/>
<path d="M4306 9082 c-3 -5 1 -9 9 -9 8 0 12 4 9 9 -3 4 -7 8 -9 8 -2 0 -6 -4
-9 -8z"/>
<path d="M3198 9047 c12 -7 19 -17 15 -22 -4 -4 -2 -5 6 0 12 7 11 10 -4 22
-11 7 -24 13 -29 13 -6 -1 -1 -6 12 -13z"/>
<path d="M4246 9043 c-6 -14 -5 -15 5 -6 7 7 10 15 7 18 -3 3 -9 -2 -12 -12z"/>
<path d="M4275 9040 c-3 -5 -1 -10 4 -10 6 0 11 5 11 10 0 6 -2 10 -4 10 -3 0
-8 -4 -11 -10z"/>
<path d="M4230 9010 c-9 -6 -10 -10 -3 -10 6 0 15 5 18 10 8 12 4 12 -15 0z"/>
<path d="M4190 8991 c0 -7 -5 -9 -12 -5 -7 5 -8 3 -3 -5 5 -9 10 -10 18 -2 6
6 8 14 4 18 -4 3 -7 1 -7 -6z"/>
<path d="M3200 8980 c-12 -7 -10 -9 7 -7 12 0 19 5 17 9 -6 10 -6 10 -24 -2z"/>
<path d="M3283 8960 c2 -8 -2 -23 -11 -33 -8 -9 -13 -19 -11 -21 2 -2 11 6 21
18 11 16 13 27 6 37 -8 12 -9 12 -5 -1z"/>
<path d="M4160 8960 c8 -5 20 -10 25 -10 6 0 3 5 -5 10 -8 5 -19 10 -25 10 -5
0 -3 -5 5 -10z"/>
<path d="M4135 8940 c-3 -6 1 -7 9 -4 18 7 21 14 7 14 -6 0 -13 -4 -16 -10z"/>
<path d="M3300 8920 c0 -5 5 -10 11 -10 5 0 7 -5 3 -12 -4 -7 -3 -8 5 -4 9 6
9 11 0 22 -14 17 -19 18 -19 4z"/>
<path d="M4170 8899 c0 -5 5 -7 10 -4 6 3 10 8 10 11 0 2 -4 4 -10 4 -5 0 -10
-5 -10 -11z"/>
<path d="M3345 8874 c11 -8 19 -18 18 -22 -1 -4 0 -9 2 -10 2 -2 3 2 1 10 -3
21 -16 38 -29 38 -7 0 -3 -7 8 -16z"/>
<path d="M4459 8885 c-3 -2 -27 -7 -55 -10 -27 -2 -69 -8 -94 -13 -25 -4 -54
-8 -65 -7 -11 0 -22 -3 -25 -7 -3 -4 -24 -10 -45 -12 -37 -5 -73 -12 -85 -16
-3 -1 -9 -2 -14 -1 -5 1 -13 -4 -17 -11 -6 -8 -9 -9 -9 -2 0 7 -7 15 -16 18
-15 6 -15 4 -3 -11 12 -15 12 -16 -3 -10 -12 4 -18 1 -18 -9 0 -9 -6 -14 -12
-11 -7 2 -12 10 -10 16 1 7 -2 10 -7 7 -5 -4 -11 -1 -13 6 -3 7 -7 3 -10 -9
-4 -17 -2 -20 10 -16 11 5 13 3 7 -7 -5 -9 -4 -11 3 -6 16 10 15 -7 0 -23 -11
-10 -10 -11 5 -6 9 4 17 2 17 -4 0 -6 7 -8 15 -5 8 4 13 10 10 14 -3 4 2 11
11 14 9 4 13 2 8 -5 -3 -6 5 -4 19 6 25 16 26 15 37 -6 7 -12 8 -19 2 -15 -5
3 -13 -1 -16 -10 -4 -10 -13 -13 -25 -9 -22 7 -53 -4 -45 -16 3 -5 0 -9 -6 -9
-6 0 -8 -6 -4 -12 4 -7 4 -10 -1 -6 -10 9 -55 -22 -105 -73 -21 -22 -44 -39
-52 -39 -12 0 -81 -22 -118 -37 -8 -3 -24 -8 -34 -10 -11 -2 -27 -10 -36 -18
-9 -8 -20 -12 -23 -8 -4 3 -7 1 -7 -5 0 -6 -13 -13 -30 -17 -16 -4 -30 -10
-30 -14 0 -3 -20 -15 -45 -26 -25 -11 -45 -24 -45 -28 0 -5 -4 -5 -10 -2 -5 3
-10 1 -10 -4 0 -6 -7 -11 -15 -11 -8 0 -15 -4 -15 -10 0 -5 -6 -10 -12 -10 -7
0 -37 -18 -65 -40 -29 -22 -53 -37 -53 -33 0 4 -7 -2 -15 -13 -8 -10 -15 -14
-15 -9 0 6 -4 4 -8 -3 -16 -25 -50 -21 -81 9 -30 28 -44 68 -19 53 7 -4 8 -3
4 5 -11 17 -28 1 -23 -21 5 -19 5 -19 -14 -2 -20 18 -26 29 -9 19 6 -3 10 -1
10 5 0 6 -8 10 -17 9 -40 -4 -49 1 -30 15 16 12 16 14 2 20 -9 3 -13 2 -10 -4
3 -6 -1 -10 -9 -10 -9 0 -16 5 -16 10 0 6 -9 10 -20 10 -11 0 -20 4 -20 8 0 5
-6 9 -12 10 -23 2 -43 7 -55 15 -38 24 -167 31 -205 11 -17 -9 -29 -10 -33 -4
-3 6 -1 11 4 11 6 1 16 2 23 3 6 0 13 8 15 16 4 13 3 13 -6 0 -6 -8 -11 -11
-11 -7 0 4 -9 3 -20 -3 -17 -9 -18 -14 -9 -33 7 -12 8 -19 5 -15 -9 8 -77 -62
-71 -72 6 -10 -41 -60 -56 -60 -8 0 -8 4 1 15 7 9 8 15 2 15 -11 0 -25 -26
-27 -52 -1 -10 2 -15 8 -11 6 4 8 0 4 -10 -4 -11 -2 -14 9 -10 10 4 12 0 8
-11 -3 -9 -2 -16 4 -16 11 0 10 25 -1 36 -4 4 1 13 11 21 15 13 15 13 -4 4
-21 -10 -34 -6 -34 11 0 5 4 6 10 3 5 -3 19 -1 30 5 16 8 20 8 20 -4 0 -8 -5
-18 -10 -21 -6 -4 -7 -13 -2 -23 7 -14 8 -41 3 -69 0 -4 -7 1 -14 11 -8 11
-19 15 -30 10 -18 -7 -23 -24 -7 -24 6 0 10 5 10 10 0 6 5 10 11 10 5 0 7 -4
4 -10 -6 -10 6 -14 35 -11 10 1 7 -5 -9 -19 -12 -11 -28 -17 -33 -14 -6 4 -5
10 3 15 10 6 7 8 -8 6 -19 -1 -20 -3 -8 -17 10 -11 11 -21 4 -35 -10 -19 -10
-19 5 -2 14 18 15 18 25 -2 15 -27 14 -36 -2 -22 -16 13 -27 5 -26 -18 0 -12
2 -11 8 3 7 18 9 17 28 -7 17 -22 23 -24 32 -13 9 11 9 16 0 22 -8 4 -9 3 -5
-4 4 -7 3 -12 -3 -12 -15 0 -21 14 -12 29 6 10 12 9 25 -4 15 -16 15 -19 1
-41 -21 -33 -19 -41 5 -13 10 13 19 18 20 12 0 -23 3 -28 19 -41 9 -8 10 -11
4 -7 -7 3 -13 2 -13 -3 0 -8 -40 -24 -60 -24 -3 0 -10 -4 -16 -9 -6 -5 -18 -7
-26 -4 -13 5 -68 -64 -68 -86 0 -5 -4 -9 -10 -9 -5 0 -17 -16 -25 -36 -8 -21
-22 -42 -30 -48 -13 -10 -12 -15 2 -44 l16 -33 -40 -34 c-65 -55 -332 -329
-398 -407 -11 -13 -31 -37 -45 -54 -20 -23 -60 -50 -90 -59 -19 -6 -230 -95
-280 -118 -25 -12 -66 -33 -92 -48 l-47 -28 -78 52 c-104 69 -110 73 -165 99
-27 13 -48 26 -48 30 0 5 -6 8 -12 8 -7 0 -47 14 -88 31 -144 61 -177 72 -189
64 -6 -3 -11 -2 -11 3 0 5 -19 13 -42 17 -24 4 -50 10 -58 12 -19 5 -51 5 -70
0 -54 -14 -70 -20 -70 -29 0 -5 -4 -7 -9 -4 -16 10 -79 -74 -86 -114 -4 -21
-16 -49 -27 -62 -31 -35 -40 -69 -33 -116 7 -46 22 -67 117 -166 32 -32 58
-63 58 -67 0 -5 7 -9 16 -9 8 0 12 -4 9 -10 -3 -5 -1 -10 4 -10 6 0 19 -8 29
-17 27 -26 112 -97 129 -106 7 -5 29 -41 47 -80 59 -126 110 -310 132 -477 3
-25 8 -56 10 -70 17 -83 25 -321 12 -337 -6 -7 -8 -13 -4 -13 4 0 0 -12 -8
-27 -7 -16 -42 -111 -76 -213 -34 -102 -66 -194 -71 -205 -5 -11 -11 -31 -13
-45 -2 -14 -12 -45 -21 -70 -9 -25 -18 -49 -19 -55 -2 -5 -6 -17 -9 -25 -9
-24 -27 -84 -27 -92 0 -4 -9 -28 -20 -53 -11 -25 -17 -45 -13 -45 3 0 0 -6 -6
-14 -7 -8 -14 -27 -17 -42 -3 -15 -11 -42 -19 -60 -8 -19 -12 -34 -10 -34 2 0
-3 -19 -11 -42 -9 -24 -17 -50 -19 -59 -2 -8 -17 -63 -35 -122 -18 -59 -33
-113 -34 -120 -1 -7 -5 -18 -10 -25 -4 -7 -5 -16 -2 -19 3 -3 -1 -17 -8 -32
-12 -23 -42 -136 -37 -136 1 0 -3 -13 -10 -30 -9 -24 -42 -140 -64 -225 -2 -8
-4 -15 -5 -15 -1 0 -3 -7 -5 -15 -1 -8 -13 -51 -25 -95 -12 -44 -24 -87 -25
-95 -2 -8 -4 -16 -5 -17 -2 -2 -3 -6 -4 -10 -1 -5 -5 -14 -9 -20 -5 -7 -6 -13
-3 -13 3 0 -2 -21 -10 -47 -14 -45 -18 -61 -28 -108 -2 -11 -9 -32 -15 -48 -6
-15 -13 -38 -15 -50 -3 -12 -8 -33 -12 -47 -3 -14 -7 -33 -7 -42 -1 -10 -6
-18 -11 -18 -5 0 -7 -3 -4 -6 4 -3 2 -20 -4 -37 -5 -18 -10 -36 -12 -42 -1 -5
-10 -28 -20 -50 -21 -48 -27 -69 -31 -115 -4 -41 -9 -65 -30 -144 -24 -88 -4
-188 42 -215 10 -6 14 -11 9 -11 -7 0 86 -111 139 -165 94 -96 221 -104 310
-20 25 24 45 49 45 56 0 7 3 10 6 7 3 -3 18 6 33 20 16 15 46 41 67 57 84 65
293 282 400 416 32 41 62 76 67 77 4 2 7 11 7 20 0 38 18 -5 45 -106 4 -12 11
-20 16 -16 5 3 9 2 8 -3 -3 -12 13 -47 25 -55 7 -5 5 -8 -6 -8 -28 0 -65 71
-70 138 -1 6 -4 9 -7 6 -8 -8 -7 -38 1 -45 9 -6 -13 -59 -25 -59 -4 0 -10 7
-13 15 -10 24 -34 -8 -34 -45 0 -61 114 -241 142 -224 7 4 1 58 -9 84 -10 26
-13 70 -5 70 5 0 15 -21 24 -47 8 -27 20 -47 25 -46 6 1 9 -7 5 -19 -3 -14 -1
-19 6 -14 8 5 10 2 6 -8 -3 -9 -1 -16 6 -16 6 0 8 -4 5 -10 -3 -5 -3 -16 2
-22 4 -7 8 -15 8 -18 0 -11 32 -49 37 -45 3 3 8 -1 11 -9 4 -11 1 -13 -11 -9
-14 6 -15 4 -5 -8 7 -9 10 -39 8 -79 -2 -36 -4 -65 -5 -65 -2 0 -8 -35 -14
-80 -5 -39 -12 -77 -16 -82 -2 -2 -4 -7 -5 -13 -1 -5 -4 -13 -5 -17 -1 -5 -3
-12 -4 -18 -3 -24 -28 -85 -34 -85 -4 0 -13 9 -20 20 -7 12 -17 18 -23 15 -5
-4 -8 -1 -7 5 4 18 -32 21 -39 4 -8 -22 4 -58 32 -90 31 -36 31 -44 3 -36 -17
4 -20 2 -15 -12 4 -10 3 -15 -4 -11 -12 8 0 -47 13 -56 4 -3 7 -23 6 -45 0
-24 6 -51 17 -67 9 -15 13 -27 9 -27 -5 0 -1 -5 8 -11 9 -5 15 -15 13 -22 -3
-6 -7 -30 -9 -52 -2 -22 -7 -48 -11 -58 -5 -11 -3 -17 6 -17 9 0 10 -3 4 -8
-13 -10 -18 -29 -19 -79 0 -24 -3 -43 -6 -43 -3 0 -7 -10 -7 -22 -2 -29 -11
-114 -16 -151 -2 -15 0 -27 4 -27 5 0 9 -6 9 -13 0 -21 58 -77 79 -77 12 0 23
1 24 3 2 1 10 -3 18 -9 8 -6 31 -10 52 -10 20 1 37 -1 37 -4 0 -3 16 -5 35 -4
19 1 35 -1 35 -5 0 -3 24 -8 53 -10 62 -4 102 -8 102 -11 0 -1 11 -3 25 -4 30
-3 163 -20 248 -32 79 -10 100 -13 142 -19 25 -3 65 -8 90 -11 25 -4 57 -7 73
-7 15 0 27 -3 27 -7 0 -3 10 -6 23 -7 76 -4 117 -8 117 -13 0 -3 21 -6 48 -7
48 -2 117 -10 117 -14 0 -1 12 -2 27 -3 15 -1 30 -5 33 -8 4 -4 13 -4 21 -1
13 5 85 -15 94 -26 3 -3 25 -20 49 -36 35 -24 40 -31 25 -33 -43 -7 -48 -11
-33 -30 23 -28 51 -83 42 -81 -4 1 -16 1 -26 0 -15 -1 -16 -3 -5 -14 22 -21
68 -48 68 -40 0 11 20 -20 20 -31 0 -4 -7 -6 -15 -2 -9 3 -15 0 -15 -9 0 -8 7
-15 16 -15 8 0 13 -4 9 -9 -8 -14 25 -43 41 -37 8 3 14 1 14 -4 0 -6 6 -10 14
-10 8 0 17 -6 19 -12 4 -10 6 -10 6 0 1 10 7 9 30 -2 16 -9 31 -12 35 -9 3 4
6 1 6 -5 0 -7 7 -12 15 -12 9 0 26 -7 39 -15 13 -9 30 -14 37 -13 8 2 14 -5
14 -17 0 -14 7 -20 22 -19 12 0 20 -3 17 -8 -7 -11 10 -10 22 2 14 14 55 -16
47 -36 -4 -11 2 -14 23 -14 32 2 54 -2 69 -12 6 -4 22 3 35 14 l25 20 -23 -5
c-18 -4 -21 -3 -13 7 6 7 8 15 5 18 -2 3 7 6 21 6 14 0 25 -6 25 -12 0 -6 5
-4 10 4 5 8 10 10 10 3 0 -6 13 -10 29 -9 17 1 28 -2 25 -6 -7 -11 0 -10 27 5
23 12 31 26 32 55 0 6 3 12 6 12 3 0 12 13 19 30 8 16 17 29 20 29 4 -1 10 0
15 1 4 1 13 3 19 4 19 2 22 36 4 36 -9 0 -16 5 -16 11 0 5 -4 7 -10 4 -5 -3
-10 0 -10 7 0 9 -3 9 -10 -2 -8 -13 -10 -12 -10 3 0 10 -4 16 -9 12 -5 -3 -12
-1 -15 4 -4 5 -2 12 3 15 5 4 12 2 16 -4 3 -5 15 -10 25 -10 15 0 19 6 17 23
-1 12 -6 25 -12 29 -17 13 13 9 66 -8 35 -12 56 -14 71 -7 16 7 31 5 57 -8 20
-10 77 -35 128 -55 50 -20 101 -45 112 -55 11 -11 29 -19 41 -19 11 0 20 -4
20 -9 0 -5 10 -9 23 -9 12 -1 31 -3 42 -5 11 -3 26 0 33 6 8 6 12 6 12 -1 0
-6 19 -13 41 -17 23 -4 56 -13 73 -20 17 -7 37 -10 44 -8 6 3 12 1 12 -4 0 -6
6 -10 13 -10 6 -1 30 -4 52 -8 22 -4 46 -7 53 -7 6 -1 12 -6 12 -12 0 -6 5 -4
10 4 5 8 10 10 10 5 0 -6 20 -10 44 -10 25 1 43 -2 40 -6 -3 -6 47 -11 124
-11 26 0 30 -17 5 -19 -10 -1 -21 -1 -25 0 -4 0 -31 3 -60 5 -29 3 -64 7 -77
10 -13 3 -41 6 -62 8 -22 1 -39 5 -39 8 0 3 -10 6 -22 6 -33 1 -89 12 -96 18
-3 3 -12 0 -20 -7 -13 -9 -14 -9 -8 0 5 9 1 13 -12 13 -10 0 -22 3 -26 7 -10
11 -36 12 -36 2 0 -5 -5 -9 -11 -9 -5 0 -7 6 -4 13 4 6 1 5 -7 -3 -11 -13 -31
-18 -40 -10 -8 6 -50 5 -54 -1 -4 -7 10 -13 56 -24 3 -1 12 -4 20 -8 8 -3 33
-9 55 -12 52 -7 85 -13 110 -18 11 -3 28 3 38 11 11 10 21 12 25 7 4 -6 18
-10 32 -11 14 -1 43 -4 65 -8 22 -4 51 -8 65 -10 14 -1 30 -5 35 -8 6 -3 29
-5 53 -4 23 1 42 -2 42 -6 0 -4 17 -7 38 -6 20 0 39 -1 42 -2 3 -1 28 -3 55
-4 28 -1 56 -5 63 -9 7 -5 12 -3 12 5 0 8 3 9 8 3 11 -15 46 -19 36 -4 -5 8
-3 9 7 3 13 -8 36 -11 112 -13 60 -2 12 -24 -83 -38 -19 -3 -41 -10 -47 -15
-12 -9 -17 -4 -14 14 0 3 -7 5 -17 3 -9 -1 -21 0 -27 3 -5 4 -28 7 -50 8 -135
5 -261 17 -271 25 -6 5 -14 6 -17 2 -4 -3 -7 -2 -7 4 0 14 -50 10 -75 -6 -14
-9 -15 -11 -3 -7 9 3 18 1 20 -4 2 -5 22 -11 45 -12 24 -2 43 -5 43 -8 0 -3
15 -6 33 -7 178 -7 305 -18 313 -26 7 -7 -145 1 -157 9 -4 2 -10 0 -14 -6 -4
-6 -12 -7 -18 -3 -16 10 -47 11 -47 2 0 -14 167 -28 340 -29 109 -1 358 9 390
16 8 1 30 3 48 3 24 1 31 5 26 14 -5 7 0 6 11 -3 11 -9 16 -10 11 -2 -4 7 -1
12 9 12 10 0 14 -5 9 -12 -6 -10 -4 -11 7 0 7 6 26 12 42 12 15 0 26 4 22 9
-3 5 -1 13 5 16 6 4 9 1 8 -7 -3 -13 13 -15 67 -5 17 3 46 9 65 12 19 3 42 9
50 12 8 3 23 5 33 4 9 -1 17 2 17 6 0 5 8 10 18 10 31 4 77 11 77 13 0 2 37
11 53 12 6 1 12 4 12 8 0 4 6 7 13 8 6 0 30 6 52 12 22 6 48 12 58 15 9 2 23
7 30 12 6 4 19 9 27 11 8 1 20 4 27 5 7 2 16 6 19 10 4 4 16 7 26 7 10 0 18 4
18 8 0 5 6 9 14 9 7 0 35 10 60 22 26 12 51 19 56 16 6 -4 10 -1 10 5 0 6 5 8
10 5 6 -3 10 -2 10 3 0 5 7 9 16 9 9 0 39 11 67 25 99 50 162 78 175 78 6 0
12 4 12 9 0 5 12 12 27 16 15 3 30 10 33 13 3 4 27 18 53 32 27 14 57 33 67
42 10 9 21 14 24 10 4 -3 10 -1 14 5 4 6 42 34 85 62 42 28 77 55 77 61 0 6 4
9 8 6 4 -2 25 11 47 30 22 19 43 34 48 34 4 0 5 5 1 11 -4 7 -1 10 6 7 8 -2
30 13 51 34 23 24 46 38 60 37 l24 0 -24 -10 c-20 -8 -22 -11 -10 -27 21 -27
23 -28 16 -9 -5 14 -3 18 9 15 9 -2 32 12 51 30 19 18 38 30 43 27 4 -3 10 1
13 8 3 8 29 25 59 39 29 14 63 36 76 47 12 12 27 19 32 16 6 -3 10 -1 10 6 0
7 3 9 7 6 3 -4 13 -1 22 5 9 7 13 9 10 5 -13 -16 101 -117 216 -192 206 -134
238 -146 389 -150 81 -2 194 16 437 70 9 2 32 6 51 9 20 3 47 10 62 15 14 6
26 9 26 6 0 -2 28 7 62 21 135 53 178 109 181 236 1 53 6 76 18 85 13 10 94
23 162 26 10 1 15 7 13 14 -3 7 0 15 6 19 7 5 5 12 -7 21 -11 7 -14 13 -8 13
6 0 16 -7 24 -16 10 -13 10 -17 -2 -25 -16 -10 -15 -10 24 -15 18 -2 25 1 21
8 -5 7 -2 8 7 3 19 -12 49 -14 49 -3 0 5 8 4 19 -1 10 -6 22 -7 26 -3 3 4 19
8 33 8 15 1 36 2 48 3 12 0 26 11 33 23 7 13 9 15 6 5 -4 -16 0 -18 43 -11 26
3 53 12 61 18 11 8 13 8 7 -1 -4 -8 -1 -13 9 -13 10 0 13 5 9 12 -5 8 -2 9 9
5 12 -4 17 -1 18 11 0 10 3 12 6 5 2 -7 9 -13 14 -13 6 0 7 4 4 10 -3 5 2 9
12 8 38 -3 54 2 47 15 -5 9 -4 9 6 0 13 -12 40 -7 40 9 0 5 -4 7 -8 4 -4 -2
-14 -1 -21 4 -16 10 -6 30 16 30 10 0 13 6 9 16 -3 8 -2 13 3 10 5 -3 12 1 15
10 8 21 8 21 -9 21 -8 0 -11 -5 -8 -11 3 -6 3 -8 -2 -4 -4 4 -15 2 -24 -5 -14
-11 -14 -10 -2 6 15 19 2 24 -17 5 -9 -9 -12 -9 -12 2 0 7 -3 10 -7 7 -3 -4
-12 1 -20 11 -12 16 -13 16 -6 -2 5 -15 3 -18 -10 -13 -9 3 -19 2 -22 -3 -4
-6 5 -14 19 -20 31 -11 35 -20 6 -13 -11 3 -26 13 -33 22 -15 20 -37 25 -37 9
0 -9 -4 -8 -10 2 -5 8 -10 10 -10 5 0 -6 -23 -10 -50 -9 -38 0 -50 -3 -46 -13
7 -17 -2 -17 -18 0 -17 16 -111 13 -133 -4 -14 -12 -16 -12 -8 0 6 11 3 13
-12 9 -12 -3 -20 0 -20 8 0 14 17 19 47 14 8 -1 11 2 7 6 -13 14 -67 13 -67
-1 0 -7 -11 -15 -25 -17 -16 -4 -25 -1 -25 8 0 9 -8 10 -28 4 -23 -6 -31 -4
-40 11 -8 12 -8 20 -2 24 6 4 9 1 8 -6 -2 -6 3 -14 11 -17 9 -3 11 0 6 8 -5 9
-4 11 3 6 16 -10 54 12 46 26 -4 7 -3 8 4 4 7 -4 12 -1 12 10 0 11 -6 15 -20
11 -11 -3 -20 -1 -20 3 0 5 -8 7 -17 5 -10 -2 -18 -4 -18 -5 0 -2 -18 -4 -40
-5 -28 -2 -44 2 -52 13 -11 13 -13 13 -14 1 -1 -8 -1 -17 0 -21 0 -5 -4 -8
-10 -8 -6 0 -8 7 -5 17 11 27 -16 34 -41 11 l-22 -20 5 31 c4 21 1 31 -7 29
-7 -2 -13 11 -16 32 -7 67 -46 205 -71 255 -15 28 -26 53 -27 57 0 12 -189
243 -240 293 -52 53 -106 84 -159 92 -17 3 -32 6 -33 7 -1 1 -5 21 -9 44 -5
35 -4 42 10 42 14 0 20 13 19 47 0 7 4 11 10 10 6 -1 12 4 13 11 1 6 2 13 4
15 1 1 3 11 5 22 2 11 9 21 14 23 6 2 11 7 11 12 0 5 5 21 12 37 20 50 35 108
37 152 1 7 38 -38 83 -100 45 -63 86 -115 90 -117 4 -2 8 -8 8 -13 0 -15 72
-79 110 -98 19 -10 44 -17 55 -15 11 2 31 4 45 6 14 2 30 6 35 10 6 4 73 40
150 79 149 76 245 139 291 190 16 17 37 40 47 50 9 11 17 23 17 28 0 5 3 11 8
13 12 5 92 116 92 128 0 5 4 10 9 10 11 0 23 42 27 95 4 43 -24 135 -40 135
-5 0 -7 3 -3 6 5 6 -10 28 -45 66 -10 10 -18 20 -18 23 0 5 -39 53 -75 90 -11
12 -32 37 -46 56 -43 56 -98 108 -145 135 -33 19 -55 25 -96 23 -29 -1 -57 -5
-63 -8 -31 -17 -35 -6 -7 20 18 16 30 29 28 29 -4 0 67 68 143 137 19 17 58
46 87 64 28 18 59 47 68 64 9 17 25 35 35 40 125 67 159 100 184 182 9 33 16
70 15 83 -3 19 4 25 35 34 77 22 142 120 141 213 0 64 -35 121 -91 149 -52 26
-202 27 -253 1 -43 -21 -92 -63 -115 -99 -15 -24 -19 -26 -31 -13 -8 7 -23 16
-34 20 -26 8 -29 22 -34 150 -3 61 -9 122 -15 137 -5 14 -7 29 -4 32 4 3 1 6
-5 6 -7 0 -11 3 -10 8 4 13 -33 79 -56 101 -20 19 -24 20 -36 6 -7 -8 -9 -15
-6 -15 4 0 1 -7 -8 -15 -18 -18 -30 -20 -19 -2 10 16 13 37 4 37 -3 0 -6 21
-6 48 0 26 -3 55 -8 65 -4 9 -4 17 1 17 5 0 7 13 4 30 -2 16 -8 27 -13 25 -4
-3 -6 4 -4 15 2 11 0 20 -6 20 -5 0 -9 3 -8 8 3 17 -14 51 -22 46 -5 -3 -9 -1
-9 5 0 15 -63 81 -77 81 -7 0 -13 5 -13 10 0 6 -11 10 -25 10 -19 0 -26 -7
-33 -32 -9 -33 -9 -33 -17 -8 -14 46 -58 140 -65 140 -4 0 -10 13 -13 29 -3
16 -12 28 -19 27 -7 0 -13 1 -14 4 0 3 -6 15 -13 28 -8 15 -8 22 -1 22 6 0 8
5 4 12 -4 7 -3 8 4 4 15 -9 15 -6 -3 38 -8 20 -15 37 -14 38 1 2 -14 35 -32
73 -18 39 -32 72 -32 75 1 3 -4 14 -10 25 -6 11 -12 22 -12 25 -5 27 -154 303
-166 308 -5 2 -9 7 -9 12 0 11 -63 114 -72 118 -5 2 -8 10 -8 18 0 8 -4 14
-10 14 -5 0 -10 5 -10 11 0 6 -13 28 -30 49 -16 21 -30 41 -30 44 0 3 -8 15
-17 25 -30 33 -43 50 -43 56 0 4 -6 12 -12 19 -7 7 -24 28 -38 46 -49 65 -115
146 -156 190 -23 25 -63 68 -88 95 -53 59 -43 48 -132 133 -81 77 -171 157
-229 204 -22 18 -50 44 -63 58 -13 14 -27 25 -32 25 -7 0 -35 20 -85 60 -11 9
-14 14 -7 10 14 -7 16 17 2 31 -7 7 3 10 32 10 27 -1 42 3 41 11 -1 6 4 13 11
16 18 7 50 -28 40 -44 -4 -7 -3 -10 4 -5 6 3 20 -7 32 -24 12 -16 26 -30 31
-30 17 0 64 -49 55 -57 -4 -4 -14 1 -22 11 -15 21 -19 10 -5 -13 5 -8 16 -11
25 -8 9 4 16 3 16 -2 0 -4 12 -14 27 -22 14 -8 41 -27 58 -44 49 -46 94 -80
108 -81 6 -1 18 -2 26 -3 7 0 11 -7 8 -15 -4 -10 0 -12 16 -8 20 5 21 4 8 -12
-8 -9 -11 -19 -7 -23 3 -3 6 -1 6 5 0 7 9 12 20 12 11 0 20 5 20 12 0 9 3 9
12 0 14 -14 42 -16 33 -2 -13 22 21 8 39 -15 10 -14 22 -25 26 -25 13 0 0 37
-21 59 -11 12 -17 21 -13 21 3 0 0 7 -7 16 -39 47 -38 57 10 102 45 42 46 44
46 105 0 70 -24 128 -78 187 -36 41 -107 95 -107 83 0 -4 -4 -2 -9 5 -4 7 -19
14 -32 16 -14 1 -30 6 -37 10 -24 15 -89 -14 -130 -58 -40 -44 -41 -44 -62
-26 -12 10 -39 21 -61 25 -21 4 -41 11 -45 16 -3 5 -21 9 -40 9 -24 0 -34 4
-34 16 0 9 -5 12 -12 8 -6 -4 -8 -3 -4 4 3 6 -1 17 -9 25 -8 9 -15 18 -15 22
0 13 -28 34 -35 27 -5 -4 -5 -2 -2 4 11 19 -74 82 -178 134 -27 14 -53 30 -57
35 -4 6 -8 6 -8 1 0 -5 -11 1 -24 13 -14 13 -29 20 -35 16 -6 -3 -11 -1 -11 5
0 8 -6 8 -20 0 -16 -9 -22 -8 -26 5 -3 8 -10 12 -15 9 -5 -3 -9 -1 -9 4 0 5
-8 12 -17 15 -18 6 -73 37 -83 47 -3 3 -15 11 -27 18 -13 6 -33 18 -45 25 -13
6 -25 14 -28 17 -3 3 -40 23 -82 44 -43 22 -78 42 -78 46 0 4 -6 7 -13 7 -8 0
-47 14 -89 31 -42 17 -89 37 -104 43 -16 7 -56 22 -89 34 -45 17 -59 26 -57
40 2 10 -1 14 -7 10 -6 -3 -11 -3 -11 2 0 9 -70 33 -95 33 -8 0 -15 6 -15 13
0 8 -4 7 -10 -3 -5 -8 -10 -10 -10 -3 0 12 -18 12 -39 -1 -8 -5 -16 -4 -21 3
-4 7 -11 11 -16 10 -5 -1 -11 0 -14 1 -15 5 -47 11 -62 11 -10 0 -20 4 -23 9
-3 5 -12 7 -20 3 -8 -3 -15 -1 -15 4 0 8 -20 13 -67 16 -13 0 -23 4 -23 8 0 3
-24 10 -52 14 -29 5 -60 10 -68 12 -8 1 -35 5 -60 8 -91 11 -105 13 -110 15
-3 1 -20 1 -37 0 -19 -1 -33 3 -33 10 0 8 20 10 68 6 78 -7 138 -14 168 -21
12 -2 39 -7 60 -11 52 -8 56 -9 79 -17 11 -3 42 -8 68 -11 27 -3 52 -8 56 -10
20 -13 61 -14 61 -2 0 7 -6 13 -12 14 -7 0 -23 3 -35 6 -58 15 -70 18 -94 20
-14 2 -41 8 -60 14 -30 9 -87 20 -144 28 -11 1 -20 3 -20 4 0 1 -18 3 -40 5
-22 3 -67 9 -100 15 -33 6 -85 13 -115 15 -30 2 -89 7 -130 11 -41 3 -115 7
-165 8 -51 1 -89 6 -87 11 1 6 7 11 12 11 6 1 11 2 13 4 3 2 37 10 72 16 36 6
70 6 110 0 49 -7 165 -18 235 -21 36 -2 65 -4 65 -5 0 -1 16 -3 36 -4 20 0 43
-7 52 -14 9 -8 24 -12 34 -10 10 1 24 -1 31 -5 7 -5 14 -2 18 7 3 9 10 14 14
11 5 -3 11 -1 15 5 8 13 -7 18 -65 24 -25 2 -45 5 -45 6 0 0 -31 3 -70 6 -90
6 -103 8 -112 19 -4 4 -2 5 5 1 7 -4 12 -2 12 6 0 9 3 10 8 2 9 -14 135 -24
154 -13 8 5 1 7 -19 4 -18 -2 -33 0 -33 4 0 4 -17 9 -37 10 -42 3 -88 8 -88
11 0 1 -31 4 -69 6 -37 3 -76 9 -86 14 -9 5 -20 6 -24 3 -11 -11 -36 -12 -36
-2 0 6 -8 5 -20 -1 -11 -6 -20 -7 -20 -3 0 4 -69 7 -152 6 -84 -1 -153 -2
-153 -3 0 0 -36 -3 -80 -6 -139 -9 -190 -12 -190 -14 0 -3 -37 -9 -85 -14 -25
-3 -58 -8 -75 -11 -16 -3 -48 -7 -70 -9 -22 -2 -47 -7 -55 -10 -8 -3 -42 -8
-75 -10 -33 -3 -73 -8 -90 -11 -16 -3 -46 -7 -65 -9 -19 -3 -35 -5 -35 -6 0
-1 -13 -4 -30 -6 -45 -7 -70 -12 -70 -14 0 -1 -16 -3 -35 -6 -39 -4 -69 -11
-97 -20 -12 -5 -15 -4 -8 3 8 8 89 39 125 48 3 1 19 8 35 15 17 7 32 14 35 15
27 8 57 29 57 40 0 10 -6 10 -31 0 -17 -7 -57 -19 -88 -25 -32 -7 -58 -16 -58
-20 0 -4 -6 -7 -12 -6 -17 1 -179 -54 -196 -67 -9 -7 -11 -6 -6 7 3 9 11 16
18 16 6 0 24 7 41 16 43 22 178 76 195 78 9 1 20 4 25 8 10 5 57 18 72 19 5 0
13 4 18 8 13 11 67 25 83 22 6 -1 16 9 21 21 5 13 20 30 35 37 14 8 28 22 31
32 3 10 20 21 38 25 18 4 37 9 42 10 27 8 82 18 103 18 12 1 22 3 22 6 0 4 36
6 80 5 44 0 80 3 80 7 0 4 9 5 20 3 11 -2 20 0 20 6 0 5 -12 9 -27 10 -16 0
-37 3 -48 5 -28 7 -371 15 -376 9z m1080 -266 c-22 -13 -31 -11 -17 5 7 8 17
12 22 9 4 -3 2 -9 -5 -14z m71 -1 c0 -10 -9 -9 -35 2 -17 8 -16 8 8 7 15 -1
27 -5 27 -9z m40 4 c0 -5 -7 -9 -15 -9 -8 0 -12 4 -9 9 3 4 9 8 15 8 5 0 9 -4
9 -8z m57 -7 c0 -7 -10 -10 -24 -7 -12 2 -23 7 -23 11 0 4 11 7 23 7 13 0 24
-5 24 -11z m-170 -121 c-3 -3 -12 -4 -19 -1 -8 3 -5 6 6 6 11 1 17 -2 13 -5z
m-770 -10 c-2 -3 -36 -7 -73 -10 -38 -3 -64 -2 -57 3 12 8 139 15 130 7z m973
-3 c0 -4 -11 -6 -25 -3 -14 2 -25 6 -25 8 0 2 11 4 25 4 14 0 25 -4 25 -9z
m-540 -93 c0 -10 1 -10 -92 -12 -81 -2 -109 11 -35 16 74 5 127 4 127 -4z m45
0 c3 -3 -3 -8 -15 -11 -13 -3 -20 0 -20 8 0 13 23 15 35 3z m108 3 c9 -1 17
-5 17 -10 0 -5 -15 -8 -32 -6 -18 2 -43 4 -55 4 -13 1 -23 5 -23 9 0 4 17 7
38 6 20 -1 45 -3 55 -3z m-372 -14 c-5 -5 -23 -10 -40 -11 -17 0 -31 -5 -31
-10 0 -4 -6 -3 -13 3 -8 6 -17 8 -21 4 -4 -4 -26 -8 -49 -9 -23 -1 -58 -5 -77
-9 -34 -6 -113 -16 -137 -18 -7 0 -13 -4 -13 -9 0 -5 -5 -6 -11 -2 -17 10 3
21 51 28 62 8 73 10 88 19 6 5 12 4 12 -2 0 -7 8 -7 23 -2 12 5 53 11 91 15
39 4 71 8 72 9 1 1 17 2 34 3 20 1 28 -2 21 -9z m618 -1 c13 0 26 -6 28 -12 5
-14 -89 -6 -115 10 -7 4 -12 2 -13 -6 0 -7 -2 -8 -5 -3 -2 6 -29 10 -59 9 -30
0 -55 3 -55 8 0 4 44 5 98 2 53 -3 108 -7 121 -8z m139 -17 c1 -1 7 -3 12 -4
6 -1 13 -4 18 -5 4 -1 19 -2 35 -2 15 -1 27 -3 27 -7 0 -3 19 -7 41 -8 23 -2
49 -8 57 -15 13 -11 14 -11 7 1 -6 10 -4 12 5 6 12 -8 34 -13 90 -20 14 -2 26
-4 28 -5 1 -2 5 -3 10 -4 4 -1 23 -6 42 -11 19 -5 42 -10 50 -11 36 -6 50 -11
56 -17 4 -4 17 -7 28 -7 12 0 54 -12 95 -25 40 -13 78 -22 82 -19 5 3 9 1 9
-4 0 -6 12 -13 28 -17 40 -10 303 -116 329 -133 12 -7 24 -13 28 -13 3 1 19
-6 35 -14 17 -9 30 -13 30 -10 0 4 7 -1 16 -9 8 -9 22 -16 30 -16 8 0 14 -4
14 -10 0 -5 9 -10 20 -10 11 0 20 -5 20 -12 0 -6 3 -9 6 -5 3 3 24 -5 45 -19
21 -13 42 -24 46 -24 13 -1 59 -40 46 -40 -17 0 -93 42 -93 52 0 5 -4 7 -8 4
-5 -3 -25 4 -46 15 -20 11 -42 16 -48 13 -7 -4 -8 -3 -4 4 5 8 0 12 -13 12
-12 0 -21 4 -21 9 0 5 -13 11 -30 13 -16 3 -30 1 -30 -4 0 -7 15 -11 24 -5 2
1 13 -7 25 -17 12 -11 21 -15 21 -10 0 5 4 4 8 -1 8 -12 64 -39 75 -37 4 1 7
-3 7 -8 0 -5 3 -9 8 -8 4 2 25 -8 47 -21 22 -14 46 -26 53 -27 15 -3 51 -45
52 -61 0 -6 3 -13 8 -15 9 -4 62 -82 62 -91 0 -4 -17 3 -37 16 -43 27 -242
128 -348 177 -38 18 -81 38 -95 45 -14 7 -29 14 -35 15 -10 2 -21 7 -82 31
-16 6 -35 12 -43 14 -8 2 -45 15 -82 29 -36 13 -69 22 -72 18 -3 -3 -6 -1 -6
5 0 6 -12 13 -27 16 -79 14 -114 27 -108 37 5 8 20 5 130 -24 61 -17 308 -93
335 -103 36 -14 60 -13 60 2 0 9 -8 18 -17 22 -10 3 -26 13 -35 21 -10 8 -18
11 -18 6 0 -5 -4 -4 -8 2 -8 12 -75 44 -91 44 -6 0 -11 5 -11 12 0 6 -3 9 -6
6 -3 -3 -29 3 -57 14 -29 10 -63 21 -77 24 -14 3 -29 9 -34 14 -5 5 -15 6 -22
3 -8 -3 -14 0 -14 7 0 6 -4 9 -9 6 -5 -4 -22 -1 -38 5 -30 12 -28 11 -123 33
-36 8 -82 20 -103 26 -22 6 -45 9 -52 6 -8 -3 -15 -1 -17 3 -2 5 -25 12 -53
15 -51 7 -86 13 -95 16 -3 1 -8 2 -12 1 -4 0 -31 4 -60 9 -30 6 -78 12 -108
15 -30 2 -55 5 -55 6 0 2 -103 11 -157 12 -27 1 -48 5 -48 9 0 4 -11 3 -24 -2
-13 -5 -27 -6 -30 -3 -7 8 -215 7 -223 0 -3 -3 -15 -2 -27 2 -11 4 -34 6 -51
5 -16 -2 -49 -5 -72 -7 -26 -2 -43 1 -43 7 0 7 -3 6 -8 -1 -4 -6 -20 -10 -35
-9 -15 2 -27 0 -27 -3 0 -4 -15 -6 -32 -5 -18 1 -37 -1 -43 -5 -5 -3 -38 -6
-72 -6 -33 0 -59 -4 -56 -8 2 -4 -10 -7 -29 -7 -18 1 -49 -3 -68 -8 -20 -5
-43 -8 -53 -6 -9 1 -17 -1 -17 -6 0 -4 -18 -10 -39 -12 -51 -4 -37 17 17 27
20 4 43 12 51 18 12 9 13 9 7 0 -4 -7 -2 -13 3 -13 6 0 11 5 11 11 0 5 5 7 10
4 6 -3 16 -3 23 2 6 4 32 8 56 9 24 1 47 8 51 14 6 9 9 9 15 0 6 -9 10 -9 16
1 7 11 9 11 9 1 0 -8 5 -10 12 -6 7 5 19 9 28 10 30 3 70 13 80 19 5 3 10 1
10 -6 0 -7 4 -8 13 -2 6 5 40 9 74 9 36 -1 63 3 63 9 0 7 3 7 8 0 4 -5 25 -10
47 -10 24 1 45 -5 53 -15 10 -13 11 -13 7 0 -4 11 2 15 20 15 14 0 25 -4 25
-9 0 -5 7 -3 15 4 12 10 15 10 15 -1 1 -8 7 -3 16 11 l15 25 -6 -25 -6 -25 21
25 c12 14 19 19 15 13 -7 -15 4 -17 24 -4 7 5 28 5 47 1 19 -4 34 -5 34 -1 0
3 17 5 38 3 44 -3 174 -12 217 -14 17 -1 33 -7 38 -13 4 -6 10 -5 16 4 7 11
13 12 23 3 8 -6 23 -9 33 -8 11 2 26 -1 33 -7 8 -6 12 -6 12 1 0 12 -24 22
-54 22 -13 0 -26 3 -30 7 -4 4 -30 9 -59 11 -29 2 -56 7 -61 12 -6 6 83 6 92
-1z m-1168 -42 c0 -6 -3 -7 -6 -4 -4 3 -15 2 -25 -3 -9 -6 -33 -12 -51 -15
-40 -6 -58 -10 -78 -18 -8 -3 -32 -9 -54 -12 -21 -3 -42 -8 -47 -11 -5 -3 -9
-1 -9 4 0 11 38 23 85 29 17 2 36 4 43 5 6 1 12 5 12 9 0 4 8 8 18 8 21 0 50
6 56 12 9 9 56 6 56 -4z m-280 -68 c0 -4 -7 -9 -15 -13 -9 -3 -15 0 -15 8 0 7
7 13 15 13 8 0 15 -4 15 -8z m-46 -9 c-6 -6 -19 -12 -30 -14 -10 -3 -27 -7
-36 -11 -10 -4 -18 -3 -18 2 0 5 17 14 38 20 51 14 58 15 46 3z m1021 -10 c3
-5 1 -10 -4 -10 -6 0 -11 5 -11 10 0 6 2 10 4 10 3 0 8 -4 11 -10z m-775 -10
c0 -5 -5 -10 -11 -10 -5 0 -7 5 -4 10 3 6 8 10 11 10 2 0 4 -4 4 -10z m728 5
c-3 -4 -53 -8 -110 -11 -104 -4 -153 -8 -218 -18 -19 -2 -62 -8 -95 -11 -67
-7 -221 -33 -247 -41 -10 -3 -18 -1 -18 5 0 9 18 14 80 25 14 2 41 7 60 10 19
4 51 8 70 10 19 2 51 6 70 10 19 3 64 8 100 11 35 3 65 7 66 8 1 1 58 3 125 5
68 2 121 0 117 -3z m-1068 -15 c0 -5 -15 -13 -32 -19 -18 -5 -63 -21 -100 -35
-38 -14 -68 -21 -68 -15 0 5 5 9 11 9 12 0 137 47 159 60 20 12 30 12 30 0z
m1216 -50 c30 3 54 3 54 0 0 -4 28 -6 61 -4 34 1 56 -2 49 -6 -7 -4 -10 -12
-6 -18 10 -17 -3 -20 -136 -26 -121 -6 -127 -5 -133 14 -3 11 -11 20 -16 20
-5 0 -9 5 -9 11 0 6 9 9 20 6 11 -3 20 -1 20 4 0 4 9 5 21 1 11 -4 45 -5 75
-2z m-1986 -4 c0 -2 -7 -7 -16 -10 -8 -3 -12 -2 -9 4 6 10 25 14 25 6z m1486
-48 c4 -31 -22 -40 -156 -54 -24 -3 -50 -10 -57 -15 -7 -6 -16 -8 -20 -6 -5 3
-38 -1 -73 -9 -36 -8 -75 -17 -87 -19 -12 -3 -24 -1 -27 4 -7 11 47 68 66 68
7 0 40 6 73 13 33 6 76 13 95 15 19 2 45 8 58 12 13 5 46 9 74 8 40 0 52 -4
54 -17z m1299 4 c-3 -3 -11 0 -18 7 -9 10 -8 11 6 5 10 -3 15 -9 12 -12z
m-3535 -11 c0 -11 6 -22 13 -25 6 -3 3 -4 -8 -3 -27 3 -48 29 -32 39 19 12 27
9 27 -11z m3406 -17 c11 -2 38 -11 60 -19 l39 -15 -35 5 c-159 27 -210 40
-210 55 0 4 28 2 63 -7 34 -8 71 -16 83 -19z m222 23 c6 3 12 -1 12 -7 0 -14
-48 -5 -65 11 -7 7 -2 7 15 1 14 -5 31 -7 38 -5z m-214 -75 c3 -5 -1 -9 -9 -9
-8 0 -12 4 -9 9 3 4 7 8 9 8 2 0 6 -4 9 -8z m297 -9 c30 -9 57 -16 62 -15 4 1
7 -2 7 -8 0 -5 6 -7 14 -4 8 3 17 0 21 -5 3 -6 10 -9 15 -6 5 3 21 0 37 -6 15
-6 37 -15 48 -20 42 -16 130 -43 138 -41 4 1 7 -3 7 -9 0 -5 5 -7 10 -4 6 3
10 1 10 -4 0 -6 3 -10 8 -10 4 1 10 0 15 -1 4 -1 10 -3 15 -5 4 -1 14 -4 22
-7 8 -4 24 -9 35 -14 11 -4 23 -6 28 -6 4 1 7 -2 7 -8 0 -6 3 -9 8 -8 4 2 32
-9 62 -23 30 -15 87 -41 125 -59 39 -18 72 -37 73 -42 2 -4 7 -6 12 -3 5 3 16
-3 26 -12 10 -10 18 -16 19 -13 2 10 84 -33 90 -48 9 -24 1 -23 -35 3 -18 13
-37 22 -41 19 -5 -3 -9 0 -9 5 0 6 -5 11 -10 11 -16 0 -179 80 -185 91 -4 5
-11 7 -16 4 -5 -4 -9 -3 -9 2 0 9 -61 39 -72 35 -5 -1 -8 2 -8 7 0 6 -8 9 -17
9 -26 -1 -47 5 -55 17 -5 6 -8 4 -8 -5 0 -10 -3 -11 -8 -4 -10 15 -92 54 -114
54 -10 0 -18 5 -18 12 0 6 -3 8 -7 5 -3 -4 -17 0 -31 9 -13 9 -22 11 -18 6 3
-6 -7 -4 -23 4 -29 15 -63 25 -88 26 -7 1 -13 4 -13 8 0 4 -6 7 -12 8 -34 3
-108 26 -108 34 0 4 -6 8 -14 8 -7 0 -27 7 -42 15 -38 20 -20 19 47 -2z m-246
-3 c-3 -5 -10 -10 -16 -10 -5 0 -9 5 -9 10 0 6 7 10 16 10 8 0 12 -4 9 -10z
m-1657 -18 c2 -8 -8 -12 -27 -12 -16 0 -33 -4 -36 -10 -8 -13 -25 -13 -25 1 0
5 4 8 9 5 5 -3 12 1 15 10 3 8 10 13 15 9 5 -3 13 -1 16 5 8 13 27 8 33 -8z
m1567 -120 c-3 -3 -11 0 -18 7 -9 10 -8 11 6 5 10 -3 15 -9 12 -12z m90 -22
c3 -6 -1 -7 -9 -4 -18 7 -21 14 -7 14 6 0 13 -4 16 -10z m-2168 -33 c4 -5 4
-7 -2 -5 -10 3 -122 -39 -141 -53 -13 -10 -104 -22 -104 -14 0 7 92 49 103 47
4 -1 7 2 7 7 0 19 120 34 137 18z m2398 -15 c-3 -3 -11 0 -18 7 -9 10 -8 11 6
5 10 -3 15 -9 12 -12z m42 -8 c-3 -3 -12 -4 -19 -1 -8 3 -5 6 6 6 11 1 17 -2
13 -5z m228 -65 c5 -5 -6 -4 -25 2 -45 15 -54 24 -15 15 17 -4 34 -12 40 -17z
m70 -27 c-3 -3 -11 0 -18 7 -9 10 -8 11 6 5 10 -3 15 -9 12 -12z m-748 2 c-3
-3 -12 -4 -19 -1 -8 3 -5 6 6 6 11 1 17 -2 13 -5z m93 -14 c0 -6 -11 -8 -27
-4 -40 10 -41 14 -5 14 18 0 32 -5 32 -10z m163 -23 c9 -1 17 -5 17 -10 0 -4
4 -6 8 -3 11 7 88 -11 147 -34 28 -11 66 -22 85 -25 74 -12 85 -14 107 -26 28
-15 30 -25 4 -25 -11 0 -17 5 -14 11 4 5 3 7 -2 3 -4 -4 -20 -1 -35 7 -15 8
-30 11 -34 8 -3 -4 -6 -1 -6 5 0 6 -7 9 -15 6 -22 -9 -18 -24 5 -24 12 0 20
-7 20 -17 0 -15 -2 -16 -10 -3 -5 8 -10 11 -10 6 0 -5 -7 -3 -15 4 -8 7 -15
10 -15 6 0 -3 -15 0 -32 7 -18 8 -39 12 -45 10 -7 -3 -13 -1 -13 4 0 5 -13 8
-30 7 -16 -1 -30 2 -30 7 0 5 -11 9 -25 9 -14 0 -25 5 -25 11 0 6 -6 9 -14 6
-8 -3 -17 -3 -21 1 -4 4 -10 7 -13 8 -4 0 -26 6 -49 13 -47 13 -58 24 -18 17
13 -3 27 -1 30 4 3 4 -20 11 -50 15 -30 3 -55 10 -55 14 0 5 30 2 68 -6 37 -8
75 -15 85 -16z m-748 -17 c5 -7 11 -8 19 -1 11 10 105 8 216 -4 30 -3 89 -8
130 -9 41 -2 75 -5 75 -6 0 -1 11 -3 25 -6 53 -9 71 -15 66 -23 -3 -5 -20 -6
-38 -4 -18 3 -42 5 -53 4 -10 0 -26 5 -34 12 -12 10 -13 9 -6 -2 6 -10 4 -12
-4 -6 -16 10 -99 19 -173 20 -32 0 -58 2 -58 5 0 3 -37 6 -82 7 -46 1 -91 4
-100 6 -27 5 -34 17 -10 17 11 0 24 -5 27 -10z m623 -55 c32 -1 57 -3 57 -4 0
-4 49 -14 73 -15 12 -1 22 -4 22 -8 0 -5 12 -8 26 -8 14 0 23 -3 21 -8 -3 -4
7 -8 21 -9 51 -2 93 -12 107 -23 8 -7 19 -9 24 -6 5 4 12 2 16 -4 4 -6 10 -8
15 -5 5 3 11 1 15 -5 4 -6 10 -8 15 -5 5 3 19 1 31 -5 21 -12 20 -12 -12 -41
-19 -15 -40 -28 -47 -29 -7 0 -10 -4 -7 -10 3 -5 -1 -10 -9 -10 -8 0 -18 5
-21 10 -4 6 -11 8 -16 5 -5 -4 -9 2 -9 11 0 10 -3 14 -7 11 -3 -4 -12 -2 -19
4 -8 6 -20 9 -29 6 -8 -4 -17 -2 -20 3 -4 6 -11 10 -16 10 -6 0 -7 -5 -3 -12
4 -7 3 -8 -4 -4 -7 4 -12 15 -13 24 0 11 -3 12 -6 5 -2 -7 -9 -13 -14 -13 -6
0 -7 6 -3 13 5 7 0 6 -11 -3 -11 -9 -16 -10 -11 -2 4 7 1 12 -9 12 -9 0 -14
-4 -11 -8 3 -5 -2 -9 -10 -9 -8 0 -13 6 -10 14 3 7 1 13 -4 13 -6 0 -10 -6
-10 -12 0 -10 -2 -10 -8 -1 -4 7 -18 11 -30 8 -20 -3 -21 -2 -11 17 6 11 14
16 18 11 3 -5 22 -11 41 -11 19 -1 45 -4 57 -6 25 -5 63 3 63 13 0 4 -24 13
-52 20 -29 8 -59 19 -67 25 -11 8 -13 8 -7 -1 4 -7 2 -13 -3 -13 -6 0 -11 5
-11 11 0 8 -5 7 -15 -1 -9 -7 -18 -10 -22 -6 -3 3 -1 6 5 6 7 0 12 4 12 8 0 5
-13 7 -30 6 -16 -1 -30 3 -30 8 0 6 -7 8 -15 5 -8 -4 -16 -3 -19 1 -2 4 -20 7
-39 7 -25 -1 -34 2 -30 12 3 7 10 10 15 7 5 -4 35 -8 66 -9z m-98 -24 c0 -10
-48 -12 -54 -2 -3 4 9 8 25 9 16 1 29 -2 29 -7z m558 -35 c12 -4 22 -11 22
-16 0 -5 -13 -4 -30 1 -17 6 -30 18 -30 27 0 11 3 13 8 6 4 -6 17 -14 30 -18z
m-518 -16 c0 -5 -2 -10 -4 -10 -3 0 -8 5 -11 10 -3 6 -1 10 4 10 6 0 11 -4 11
-10z m205 -8 c-3 -3 -11 0 -18 7 -9 10 -8 11 6 5 10 -3 15 -9 12 -12z m-165
-2 c0 -5 -4 -10 -10 -10 -5 0 -10 5 -10 10 0 6 5 10 10 10 6 0 10 -4 10 -10z
m51 0 c11 6 19 7 19 2 0 -11 -40 -23 -52 -16 -5 3 -5 10 -1 17 5 8 8 8 11 -1
2 -8 9 -9 23 -2z m149 0 c0 -5 -2 -10 -4 -10 -3 0 -8 5 -11 10 -3 6 -1 10 4
10 6 0 11 -4 11 -10z m-309 -47 c12 -16 12 -17 -1 -7 -8 6 -24 8 -35 4 -19 -7
-19 -7 0 -18 17 -10 18 -13 5 -21 -18 -12 -43 1 -46 24 -1 9 0 15 2 12 3 -3
17 1 32 9 15 8 28 14 28 14 1 0 8 -8 15 -17z m52 -10 c-7 -2 -19 -2 -25 0 -7
3 -2 5 12 5 14 0 19 -2 13 -5z m51 -1 c3 -5 -1 -9 -9 -9 -8 0 -12 4 -9 9 3 4
7 8 9 8 2 0 6 -4 9 -8z m-54 -29 c0 -8 -4 -12 -9 -8 -5 3 -12 1 -16 -4 -7 -12
-35 -3 -35 11 0 5 4 7 9 3 5 -3 12 -2 15 3 8 14 36 10 36 -5z m77 -9 c23 -6
40 -7 37 -2 -3 4 0 8 5 8 6 0 11 -4 11 -8 0 -5 7 -9 15 -9 11 0 12 4 3 14 -8
11 -7 12 6 7 9 -3 16 -10 16 -15 0 -5 11 -9 25 -9 14 0 25 -4 25 -9 0 -11 19
-9 39 3 9 6 12 5 7 -2 -6 -10 48 -31 84 -32 11 -1 10 -4 -5 -16 -14 -11 -31
-13 -55 -9 -19 3 -44 7 -55 9 -61 11 -86 17 -121 33 -40 17 -46 19 -75 21 -9
1 -19 11 -22 22 -3 14 -1 18 6 13 7 -5 31 -13 54 -19z m23 16 c0 -5 -4 -10 -9
-10 -6 0 -13 5 -16 10 -3 6 1 10 9 10 9 0 16 -4 16 -10z m144 2 c3 -5 -1 -9
-9 -9 -8 0 -12 4 -9 9 3 4 7 8 9 8 2 0 6 -4 9 -8z m-789 -12 c-3 -5 -16 -10
-28 -9 -20 1 -20 2 3 9 14 4 26 8 28 9 2 1 0 -3 -3 -9z m415 -23 c10 -4 8 -6
-7 -6 -16 -1 -23 5 -23 17 0 10 3 13 8 6 4 -6 14 -14 22 -17z m-150 3 c0 -11
-78 -17 -95 -7 -10 5 -15 4 -15 -4 0 -7 -3 -10 -6 -6 -3 3 -4 9 -1 14 6 10
117 13 117 3z m101 -8 c-7 -2 -18 1 -23 6 -8 8 -4 9 13 5 13 -4 18 -8 10 -11z
m570 3 c12 -3 24 -7 28 -10 3 -4 -8 -3 -24 0 -17 4 -35 7 -42 7 -7 1 -10 5 -7
10 3 5 10 6 15 3 5 -4 19 -8 30 -10z m-2314 -191 c-3 -3 -12 -4 -19 -1 -8 3
-5 6 6 6 11 1 17 -2 13 -5z m-47 -18 c0 -2 -7 -7 -16 -10 -8 -3 -12 -2 -9 4 6
10 25 14 25 6z m-61 -29 c-2 -1 -12 -9 -22 -16 -15 -12 -17 -12 -11 3 3 9 13
16 22 16 8 0 13 -1 11 -3z m-61 -32 c-12 -12 -176 -90 -168 -80 6 7 24 18 40
25 17 7 30 16 30 21 0 5 3 8 8 7 11 -4 72 26 72 35 0 5 5 5 11 2 6 -4 9 -8 7
-10z m130 -32 c-36 -53 -42 -57 -59 -36 -12 14 -12 16 1 8 12 -7 13 -6 3 6
-10 12 -8 18 7 32 11 9 25 17 30 17 6 0 10 4 10 8 0 4 8 8 18 8 16 0 15 -6
-10 -43z m-110 -77 c-20 -20 -75 -46 -81 -39 -4 3 -9 -2 -13 -11 -3 -9 -10
-16 -15 -16 -5 0 -28 -12 -50 -27 -28 -19 -43 -23 -51 -15 -12 12 -1 35 13 26
5 -3 15 -1 22 4 7 5 26 14 42 20 28 10 26 10 -18 7 -26 -2 -53 -7 -60 -10 -7
-4 -1 3 13 14 14 11 30 21 36 21 6 0 17 7 24 15 6 8 15 14 18 13 7 0 11 1 30
7 4 2 17 6 30 10 12 4 22 12 22 17 0 5 4 7 9 4 5 -3 15 2 22 11 13 15 14 14
17 -10 2 -15 -3 -33 -10 -41z m3926 20 c17 -13 49 -40 70 -60 22 -20 44 -36
48 -36 4 0 8 -5 8 -11 0 -14 -46 15 -83 53 -15 15 -29 28 -32 28 -2 0 -16 11
-31 25 -34 32 -21 33 20 1z m305 -91 c10 -14 25 -25 32 -26 10 0 10 -2 2 -5
-7 -3 -36 18 -65 47 -35 35 -42 45 -21 31 18 -13 41 -34 52 -47z m58 -60 c0
-8 -4 -12 -9 -9 -4 3 -8 9 -8 15 0 5 4 9 8 9 5 0 9 -7 9 -15z m57 -50 c18 -13
18 -14 -2 -12 -11 0 -19 4 -16 8 2 4 -2 10 -8 12 -7 3 -8 6 -3 6 6 0 18 -6 29
-14z m36 -43 c0 -4 15 -23 33 -42 31 -34 102 -125 80 -105 -5 6 -33 36 -61 67
-28 31 -52 54 -55 52 -2 -3 -7 4 -10 16 -3 11 -1 20 4 20 5 0 9 -4 9 -8z m67
-127 c0 -8 -4 -12 -9 -9 -5 3 -6 10 -3 15 9 13 12 11 12 -6z m54 -62 c13 -16
12 -17 -3 -4 -10 7 -18 15 -18 17 0 8 8 3 21 -13z m209 -424 c0 -18 -18 -9
-23 12 -4 16 -3 18 9 8 8 -6 14 -15 14 -20z m24 -59 c-6 -5 -24 21 -24 34 0 6
6 1 14 -10 8 -10 12 -21 10 -24z m153 -66 c-5 -5 -57 90 -57 103 0 5 14 -16
31 -45 17 -29 29 -55 26 -58z m-77 46 c11 -11 20 -28 21 -37 0 -15 2 -15 9 2
8 19 9 19 9 -3 1 -15 5 -21 13 -16 6 4 8 3 4 -4 -3 -6 -1 -14 5 -17 5 -4 8
-13 5 -21 -3 -8 -1 -14 5 -14 6 0 8 -4 5 -9 -3 -5 1 -14 9 -21 8 -7 15 -21 15
-31 0 -11 4 -19 10 -19 5 0 7 -7 4 -15 -4 -8 -1 -15 4 -15 6 0 14 -16 18 -35
3 -19 9 -35 13 -35 4 0 15 -24 26 -52 10 -29 22 -59 28 -65 7 -9 5 -13 -7 -13
-9 0 -16 5 -16 10 0 6 -3 9 -7 9 -22 -4 -32 3 -39 24 -5 12 -7 25 -6 30 1 4
-2 7 -8 7 -5 0 -9 3 -8 8 0 4 -2 16 -6 27 -4 11 -12 31 -16 45 -4 14 -12 34
-16 45 -4 11 -6 23 -6 28 1 4 -2 7 -6 7 -5 0 -9 6 -9 13 -1 18 -39 98 -45 92
-2 -3 -5 2 -6 10 -1 8 -3 22 -4 30 -1 8 -5 15 -9 15 -3 0 -9 9 -12 20 -3 11
-3 20 -1 20 2 0 13 -9 24 -20z m-300 -33 c0 -7 9 -23 20 -35 11 -12 20 -26 20
-32 0 -13 20 -49 38 -68 7 -8 11 -21 8 -28 -3 -8 -1 -14 3 -14 11 0 54 -81 47
-88 -10 -9 -31 16 -61 75 -16 32 -32 60 -35 63 -7 7 -70 128 -70 134 0 3 7 6
15 6 8 0 15 -6 15 -13z m-30 -78 c0 -4 6 -14 13 -21 6 -7 27 -43 46 -78 19
-36 39 -68 45 -72 6 -4 7 -8 2 -8 -5 0 -4 -6 2 -13 6 -7 7 -18 3 -25 -5 -8
-16 3 -35 35 -38 69 -50 86 -62 98 -7 5 -15 22 -18 38 -4 15 -15 36 -26 47
-11 11 -17 20 -14 20 4 0 1 6 -5 13 -6 8 -8 17 -4 21 7 7 53 -41 53 -55z m225
42 c3 -5 2 -12 -3 -15 -5 -3 -9 1 -9 9 0 17 3 19 12 6z m235 -58 c18 -38 33
-71 32 -75 -1 -5 2 -8 6 -8 5 0 14 -16 22 -35 8 -19 17 -35 22 -35 4 0 7 -3 6
-7 -3 -13 25 -83 34 -83 4 0 8 -12 8 -26 0 -16 4 -23 11 -18 7 4 10 1 7 -7 -5
-16 -33 -19 -33 -4 -1 6 -16 42 -34 80 -18 39 -42 89 -53 112 -11 24 -24 45
-29 49 -5 3 -7 9 -5 12 8 13 -30 83 -40 75 -5 -5 -6 -4 -2 1 4 5 3 15 -3 23
-9 10 -8 13 3 13 7 0 29 -30 48 -67z m-215 17 c-3 -4 0 -11 5 -13 6 -3 5 -4
-1 -3 -7 1 -13 10 -15 19 -1 9 2 15 7 11 5 -3 7 -9 4 -14z m-315 -62 c0 -15 4
-28 8 -28 5 0 9 -7 9 -17 0 -12 -5 -10 -19 8 -10 13 -25 31 -33 40 -21 22 -19
29 10 27 20 -2 25 -8 25 -30z m343 17 c4 -8 1 -17 -6 -21 -7 -4 -9 -4 -5 1 4
4 3 14 -3 22 -7 8 -8 13 -1 13 5 0 12 -7 15 -15z m32 -55 c4 -16 11 -32 16
-35 5 -4 9 -14 9 -23 -1 -9 -12 3 -25 28 -27 50 -29 60 -16 60 5 0 12 -13 16
-30z m-320 -60 c3 -5 1 -10 -4 -10 -6 0 -11 5 -11 10 0 6 2 10 4 10 3 0 8 -4
11 -10z m360 -30 c3 -5 1 -10 -4 -10 -6 0 -11 5 -11 10 0 6 2 10 4 10 3 0 8
-4 11 -10z m16 -37 c13 -16 12 -17 -3 -4 -10 7 -18 15 -18 17 0 8 8 3 21 -13z
m262 -145 c-3 -6 -12 -3 -20 5 -9 9 -12 20 -8 28 6 9 11 8 21 -6 7 -10 11 -22
7 -27z m-433 -9 c0 -5 5 -7 10 -4 6 4 10 3 9 -2 -1 -4 0 -10 1 -13 7 -20 7
-41 -2 -47 -7 -3 -8 -1 -4 5 4 7 2 12 -3 12 -6 0 -11 9 -11 20 0 11 -7 20 -16
20 -8 0 -12 5 -9 10 8 13 25 13 25 -1z m-15 -67 c-3 -3 -11 0 -18 7 -9 10 -8
11 6 5 10 -3 15 -9 12 -12z m569 -497 c-4 -8 -7 -15 -9 -15 -2 0 -5 7 -9 15
-3 9 0 15 9 15 9 0 12 -6 9 -15z m3 -48 c2 -25 10 -79 13 -87 5 -13 4 -47 -2
-61 -4 -9 -1 -25 7 -36 8 -11 11 -23 8 -27 -3 -3 -2 -6 3 -6 6 0 16 -16 23
-35 7 -19 17 -35 22 -35 6 0 7 -4 4 -10 -9 -14 40 -60 64 -60 15 0 19 -5 15
-17 -5 -15 -4 -15 4 -3 6 8 8 18 6 22 -3 4 0 8 6 8 6 0 8 5 4 12 -5 7 -3 8 5
4 7 -5 17 -18 22 -30 7 -16 8 -13 4 16 -3 20 0 40 5 43 6 4 8 10 5 15 -3 4 2
10 10 14 11 4 15 -3 16 -27 1 -18 2 -55 4 -84 l2 -51 -41 -11 c-40 -11 -42
-10 -73 26 -17 21 -29 41 -26 47 3 5 1 6 -5 2 -19 -12 -57 36 -58 72 -1 18 -6
38 -12 44 -9 9 -9 3 -3 -20 12 -40 0 -48 -31 -19 -14 12 -37 32 -53 44 -20 16
-28 31 -28 57 -1 20 -4 36 -7 36 -4 0 -6 20 -6 45 0 25 3 45 8 45 7 0 12 -15
9 -32 0 -5 4 -8 9 -8 6 0 10 -7 10 -15 0 -8 -5 -15 -11 -15 -5 0 -7 5 -4 10 3
6 1 10 -4 10 -19 0 -12 -17 13 -33 21 -14 26 -14 36 -2 7 8 8 15 3 15 -5 0
-10 11 -11 25 -1 14 3 24 9 22 6 -1 14 5 16 13 3 10 2 11 -4 3 -5 -8 -14 -9
-23 -3 -12 7 -11 10 4 16 17 7 17 8 -4 19 -19 10 -20 13 -6 18 9 4 16 2 16 -3
0 -6 5 -10 11 -10 8 0 8 4 -1 14 -6 8 -18 12 -26 9 -17 -6 -18 1 -2 26 15 24
44 16 45 -12z m-8166 -928 c0 -13 -2 -37 -6 -54 -3 -16 -8 -43 -10 -60 -2 -16
-6 -55 -10 -85 -4 -30 -8 -66 -10 -80 -8 -77 -37 -227 -45 -237 -2 -2 -3 -6
-5 -10 -1 -5 -7 -21 -13 -36 -7 -16 -12 -31 -12 -33 0 -12 -56 -120 -65 -126
-5 -4 -6 -8 -2 -8 5 0 -2 -14 -14 -32 -20 -28 -23 -29 -29 -12 -4 10 -1 39 6
63 7 25 11 48 8 53 -3 4 -1 8 4 8 6 0 12 15 15 33 4 26 11 58 16 75 1 1 1 4 1
7 1 3 7 23 15 45 8 22 12 40 10 40 -2 0 3 16 11 35 8 19 11 35 8 35 -4 0 -1 7
6 15 7 8 10 15 7 15 -3 0 2 21 10 48 22 71 79 273 87 306 8 33 16 31 17 -5z
m546 -1556 c-4 -3 -1 -13 6 -22 11 -14 10 -14 -5 -2 -16 12 -16 31 -1 31 4 0
3 -3 0 -7z m7943 -903 c0 -5 -5 -10 -11 -10 -5 0 -7 5 -4 10 3 6 8 10 11 10 2
0 4 -4 4 -10z m-166 -26 c8 -22 8 -24 -6 -24 -6 0 -8 3 -5 7 4 3 2 12 -4 20
-7 8 -8 13 -1 13 5 0 13 -7 16 -16z m76 8 c0 -5 -7 -9 -15 -9 -8 0 -12 4 -9 9
3 4 9 8 15 8 5 0 9 -4 9 -8z m43 -17 c-7 -21 -12 -19 -10 4 0 11 5 18 9 15 4
-3 5 -11 1 -19z m77 15 c0 -5 -2 -10 -4 -10 -3 0 -8 5 -11 10 -3 6 -1 10 4 10
6 0 11 -4 11 -10z m-168 -48 c-7 -2 -9 -9 -6 -14 4 -7 2 -8 -4 -4 -6 4 -9 13
-6 21 4 8 11 12 17 8 8 -5 7 -8 -1 -11z m159 -35 c-10 -9 -11 -8 -5 6 3 10 9
15 12 12 3 -3 0 -11 -7 -18z m189 -1 c0 -2 -7 -7 -16 -10 -8 -3 -12 -2 -9 4 6
10 25 14 25 6z m50 -11 c5 3 11 1 14 -4 4 -5 -2 -8 -11 -7 -9 2 -18 8 -19 15
-1 6 0 7 3 1 2 -5 9 -8 13 -5z m-20 -30 c0 -5 -5 -3 -10 5 -5 8 -10 20 -10 25
0 6 5 3 10 -5 5 -8 10 -19 10 -25z m177 28 c-4 -3 -2 -11 3 -18 7 -8 5 -12 -4
-12 -8 0 -12 7 -11 16 5 22 4 21 12 21 3 0 3 -3 0 -7z m94 -16 c-10 -9 -11 -8
-5 6 3 10 9 15 12 12 3 -3 0 -11 -7 -18z m-343 0 c6 3 12 -1 12 -8 0 -7 -3 -9
-7 -6 -3 4 -16 -1 -27 -10 -20 -17 -20 -17 -6 1 13 18 13 19 -1 14 -9 -4 -16
-1 -16 7 0 9 6 11 16 6 9 -5 22 -6 29 -4z m155 6 c-7 -2 -19 -2 -25 0 -7 3 -2
5 12 5 14 0 19 -2 13 -5z m154 1 c-3 -3 -12 -4 -19 -1 -8 3 -5 6 6 6 11 1 17
-2 13 -5z m-258 -27 c0 -9 -2 -8 -6 1 -2 6 -10 9 -15 6 -7 -4 -8 -2 -4 5 9 13
26 5 25 -12z m68 -3 c-3 -3 -12 -4 -19 -1 -8 3 -5 6 6 6 11 1 17 -2 13 -5z
m29 -20 c1 -9 0 -13 -4 -10 -3 4 -7 14 -8 22 -1 9 0 13 4 10 3 -4 7 -14 8 -22z
m117 7 c-12 -10 -20 -21 -18 -25 3 -3 2 -4 -2 -1 -13 10 -11 34 2 29 7 -3 16
-1 20 5 3 6 9 11 13 11 4 -1 -3 -9 -15 -19z m-237 -27 c0 -13 -2 -22 -5 -19
-3 3 -6 17 -7 31 0 13 2 22 5 19 3 -3 6 -17 7 -31z m59 27 c3 -5 2 -12 -3 -15
-5 -3 -9 1 -9 9 0 17 3 19 12 6z m-300 -11 c3 -5 1 -10 -4 -10 -6 0 -11 5 -11
10 0 6 2 10 4 10 3 0 8 -4 11 -10z m336 -7 c10 -12 11 -15 1 -9 -7 4 -20 2
-29 -6 -15 -12 -15 -11 -2 10 17 26 13 26 30 5z m229 13 c0 -3 -4 -8 -10 -11
-5 -3 -10 -1 -10 4 0 6 5 11 10 11 6 0 10 -2 10 -4z m-520 -10 c0 -2 -8 -10
-17 -17 -16 -13 -17 -12 -4 4 13 16 21 21 21 13z m381 -19 c-10 -9 -11 -8 -5
6 3 10 9 15 12 12 3 -3 0 -11 -7 -18z m-298 -4 c-3 -7 -6 -13 -8 -13 -2 0 -5
6 -8 13 -3 8 1 14 8 14 7 0 11 -6 8 -14z m32 8 c3 -5 2 -12 -3 -15 -5 -3 -9 1
-9 9 0 17 3 19 12 6z m-218 -16 c24 2 30 -1 26 -12 -4 -11 -8 -11 -13 -3 -8
12 -13 12 -45 0 -16 -6 -21 -4 -21 11 0 11 4 15 11 9 5 -4 24 -7 42 -5z m233
-14 c-6 -13 -17 -17 -30 -14 -11 3 -20 8 -20 10 0 3 9 3 19 0 12 -3 22 1 25 9
3 8 8 14 11 14 3 0 1 -9 -5 -19z m42 2 c-6 -2 -10 -9 -7 -14 4 -5 -1 -6 -10
-2 -13 5 -14 7 -3 14 7 5 18 8 23 8 6 0 4 -3 -3 -6z m-208 -24 c-4 -8 1 -9 17
-4 13 4 21 4 17 0 -10 -11 -58 -15 -58 -5 0 5 6 11 13 13 18 8 19 8 11 -4z
m-123 -22 c-10 -9 -11 -8 -5 6 3 10 9 15 12 12 3 -3 0 -11 -7 -18z m-2389
-205 c-6 -2 -12 -10 -12 -17 0 -8 -5 -17 -12 -21 -7 -4 -8 -3 -4 4 11 19 0 15
-92 -30 -48 -23 -89 -43 -92 -44 -3 0 -23 -9 -45 -19 -22 -10 -53 -19 -70 -19
-16 -1 -36 -5 -42 -9 -9 -5 -11 -3 -7 7 4 12 21 20 64 31 3 0 45 21 94 45 49
24 96 43 105 43 9 0 22 7 29 16 8 9 11 10 7 4 -10 -20 9 -15 27 6 11 13 24 18
40 14 12 -4 17 -8 10 -11z m557 -89 c-18 -23 -43 -42 -48 -38 -3 4 50 54 58
55 2 0 -3 -8 -10 -17z m-289 -98 c-7 -8 -20 -15 -29 -15 -11 0 -8 5 9 14 33
19 35 19 20 1z m-4172 -28 c6 3 12 0 12 -5 0 -6 9 -13 19 -17 27 -8 34 -42 10
-48 -11 -3 -19 -1 -19 4 0 5 -7 9 -16 9 -8 0 -13 4 -10 9 3 5 -3 11 -13 14
-11 2 -24 14 -30 26 -11 19 -10 20 11 12 13 -4 29 -6 36 -4z m3826 1 c-5 -7
-3 -8 7 -2 41 25 53 -6 12 -33 -16 -11 -23 -11 -29 -2 -4 7 -3 10 4 5 6 -3 13
-2 16 3 7 11 -13 9 -31 -2 -7 -5 -18 -5 -23 -2 -6 4 -10 3 -9 -2 3 -20 -2 -27
-11 -13 -8 13 -10 12 -10 -3 0 -10 -4 -16 -9 -12 -5 3 -12 1 -16 -5 -4 -6 -10
-8 -15 -5 -4 3 -11 -3 -14 -12 -6 -15 -8 -15 -16 -3 -7 12 -12 12 -22 2 -9 -9
-9 -12 2 -12 7 0 11 -2 8 -5 -3 -3 -13 -3 -22 1 -15 6 -15 8 4 21 11 8 25 11
30 8 6 -3 10 1 10 9 0 10 6 13 18 9 9 -3 14 -2 9 2 -4 5 19 21 50 36 69 33 66
32 57 17z m291 -10 c-11 -6 -30 -20 -42 -31 -13 -11 -23 -16 -23 -11 0 11 60
54 75 54 5 0 1 -6 -10 -12z m-306 -41 c-2 -1 -13 -9 -24 -17 -19 -14 -19 -14
-6 3 7 9 18 17 24 17 6 0 8 -1 6 -3z m-2661 -21 c12 -4 22 -12 22 -17 0 -12
-17 -12 -25 1 -3 6 -17 10 -31 10 -13 0 -24 4 -24 8 0 10 25 9 58 -2z m1982
-6 c-13 -12 -30 -18 -37 -16 -8 3 -16 -1 -19 -9 -3 -8 -12 -11 -21 -8 -11 4
-14 3 -9 -6 5 -8 1 -14 -13 -18 -12 -3 -21 -9 -21 -13 0 -4 -13 -7 -30 -8 -16
0 -35 -4 -42 -8 -6 -4 -23 -8 -37 -9 -14 -1 -51 -6 -81 -10 -30 -5 -65 -9 -77
-9 -13 -1 -23 -3 -23 -6 0 -3 -8 -6 -17 -6 -26 -1 -212 -14 -258 -19 -38 -3
-39 -3 -15 10 14 7 28 11 32 9 12 -8 49 22 40 32 -4 4 1 2 11 -5 15 -12 17
-12 12 1 -4 9 0 15 9 15 8 0 12 -5 9 -11 -4 -6 0 -5 9 2 9 7 37 13 62 14 26 0
48 3 50 7 3 4 23 6 45 6 23 0 41 2 41 6 0 4 11 6 25 5 14 0 25 -5 25 -10 0 -5
7 -3 15 4 12 10 15 10 15 -1 0 -8 6 -6 16 7 8 10 13 13 9 7 -3 -7 -1 -13 4
-13 6 0 11 5 11 11 0 8 4 8 14 0 11 -9 17 -9 28 1 14 13 33 20 56 21 6 0 12 4
12 9 0 5 4 7 9 4 5 -4 20 -2 33 3 14 5 42 12 63 15 21 4 41 9 44 11 2 3 9 5
14 5 6 0 0 -9 -13 -20z m-2120 -9 c0 -4 15 -13 33 -19 l32 -12 -40 6 c-22 3
-43 8 -47 10 -14 9 -9 24 7 24 8 0 15 -4 15 -9z m2735 -1 c-8 -12 -80 -50 -95
-50 -22 0 1 19 30 25 17 4 30 11 30 16 0 6 5 7 10 4 6 -3 10 -1 10 4 0 6 5 11
11 11 5 0 7 -5 4 -10z m-2535 -4 c0 -11 -19 -15 -25 -6 -3 5 1 10 9 10 9 0 16
-2 16 -4z m34 -13 c4 -5 13 -8 19 -8 5 0 12 -7 14 -15 4 -13 3 -13 -6 0 -6 8
-11 11 -11 6 0 -6 -5 -5 -11 1 -6 6 -18 9 -27 6 -10 -4 -13 -2 -8 5 8 14 19
15 30 5z m86 -32 c0 -4 -9 -7 -20 -7 -11 0 -20 6 -20 12 0 7 8 10 20 7 11 -3
20 -8 20 -12z m-268 -7 c13 -3 34 -7 48 -10 13 -3 29 -9 35 -13 5 -4 23 -8 38
-9 16 -1 34 -5 40 -9 7 -4 21 -8 32 -9 11 -2 81 -18 155 -38 136 -35 184 -46
230 -51 14 -2 26 -4 28 -5 2 -3 6 -4 47 -13 17 -3 50 -8 75 -11 102 -12 137
-16 170 -21 19 -2 59 -5 87 -6 92 -4 57 -16 -42 -15 -52 1 -95 4 -95 8 0 11
-23 5 -32 -7 -5 -6 -8 -6 -8 1 0 7 -26 12 -73 13 -40 1 -84 4 -97 6 -14 3 -41
7 -60 10 -19 3 -46 7 -60 10 -14 3 -43 7 -65 10 -22 2 -58 7 -80 10 -35 6 -55
12 -130 41 -11 4 -31 9 -45 11 -14 2 -34 7 -45 12 -90 39 -144 59 -149 54 -3
-4 -6 -1 -6 6 0 7 -4 10 -9 6 -5 -3 -16 1 -24 9 -11 11 -17 12 -26 3 -9 -9
-11 -8 -5 6 4 11 13 16 24 12 10 -3 29 -8 42 -11z m313 1 c25 -10 46 -16 63
-17 6 -1 12 -5 12 -9 0 -4 14 -6 30 -5 17 1 30 -1 30 -4 0 -3 12 -7 27 -8 14
-1 29 -5 32 -8 10 -10 -134 12 -153 24 -13 8 -34 13 -58 15 -10 1 -18 7 -18
15 0 7 3 11 8 9 4 -2 16 -8 27 -12z m398 -39 c4 -10 0 -12 -15 -8 -15 4 -17 7
-6 13 17 11 15 11 21 -5z m1217 -36 c0 -5 -21 -12 -47 -16 -27 -3 -57 -8 -68
-10 -96 -19 -165 -27 -330 -40 -138 -10 -176 -10 -181 -2 -3 4 7 9 23 9 67 3
123 6 193 13 41 4 98 9 125 11 28 3 61 7 75 10 30 6 97 16 127 19 12 1 24 4
27 6 8 9 56 8 56 0z m-797 -7 c-7 -2 -21 -2 -30 0 -10 3 -4 5 12 5 17 0 24 -2
18 -5z m140 0 c-7 -2 -21 -2 -30 0 -10 3 -4 5 12 5 17 0 24 -2 18 -5z m907 -8
c-7 -8 -17 -15 -23 -15 -6 0 -2 7 9 15 25 19 30 19 14 0z m500 5 c0 -5 -18
-18 -40 -29 -22 -10 -40 -15 -40 -11 0 5 9 12 20 15 11 3 20 11 20 16 0 6 4 8
9 4 5 -3 12 -1 16 5 8 13 15 13 15 0z m-119 -61 c-18 -10 -38 -19 -46 -19 -8
0 -15 -4 -15 -8 0 -5 -6 -9 -12 -9 -7 0 -21 -4 -30 -8 -10 -4 -18 -3 -18 2 0
5 17 16 37 24 21 8 51 21 68 30 41 21 54 11 16 -12z m-342 -1 c-13 -5 -26 -9
-29 -10 -3 0 -15 -4 -28 -9 -35 -13 -73 -19 -67 -10 5 9 94 35 108 33 4 -1 7
2 7 8 0 5 7 7 17 3 13 -5 12 -8 -8 -15z m-929 6 c0 -8 -19 -13 -24 -6 -3 5 1
9 9 9 8 0 15 -2 15 -3z m683 -5 c-11 -11 -83 -22 -83 -13 0 8 44 23 70 23 17
1 21 -2 13 -10z m-166 -35 c-4 -4 -18 -9 -30 -11 -12 -2 -35 -6 -52 -9 -143
-25 -282 -33 -358 -20 -29 5 -37 3 -31 -6 6 -10 4 -11 -7 0 -7 6 -33 12 -58
12 -69 0 -44 8 37 12 39 2 72 -1 72 -5 0 -5 5 -5 10 -2 20 13 80 14 73 2 -5
-9 -3 -9 8 -1 8 6 21 11 29 11 27 1 154 13 156 16 1 1 38 4 81 5 43 2 75 0 70
-4z m-678 -30 c3 -3 -3 -5 -14 -3 -11 2 -26 0 -32 -4 -8 -5 -13 -3 -13 3 0 6
-4 8 -10 5 -5 -3 -10 -2 -10 4 0 10 69 6 79 -5z m38 0 c-3 -3 -12 -4 -19 -1
-8 3 -5 6 6 6 11 1 17 -2 13 -5z m677 -22 c3 -5 0 -9 -7 -10 -7 0 -25 -3 -42
-7 -16 -4 -42 -8 -57 -9 -15 -1 -31 -5 -34 -9 -4 -4 -13 -2 -21 4 -7 7 -13 7
-13 2 0 -6 -12 -11 -27 -12 -16 0 -47 -3 -70 -4 -26 -2 -43 1 -43 7 0 6 23 12
53 13 65 2 138 10 197 22 25 5 48 9 52 10 4 1 9 -3 12 -7z m367 -36 c-7 -8
-19 -13 -28 -12 -10 2 -28 -3 -42 -10 -13 -7 -28 -11 -33 -8 -5 3 -14 1 -21
-4 -7 -5 -28 -13 -47 -18 -50 -11 -50 -11 -52 -14 -2 -1 -14 -4 -28 -5 -14 -1
-32 -5 -40 -8 -22 -9 -66 -16 -145 -23 -38 -3 -74 -9 -79 -12 -5 -3 -6 0 -2 6
6 9 23 14 106 25 8 2 21 7 29 11 11 7 12 6 6 -5 -7 -11 -6 -12 6 -3 14 11 40
17 124 30 21 3 43 8 48 11 9 6 63 16 90 17 9 0 17 4 17 9 0 4 5 5 10 2 6 -4
16 -2 23 3 7 5 20 8 29 7 10 -2 20 1 24 6 3 5 8 9 11 9 3 0 0 -6 -6 -14z
m-721 -10 c0 -3 -4 -8 -10 -11 -5 -3 -10 -1 -10 4 0 6 5 11 10 11 6 0 10 -2
10 -4z m-1096 -41 c-4 -8 -11 -15 -16 -15 -6 0 -5 6 2 15 7 8 14 15 16 15 2 0
1 -7 -2 -15z m1271 -14 c3 -5 2 -12 -3 -15 -5 -3 -9 1 -9 9 0 17 3 19 12 6z
m40 -9 c-3 -3 -11 0 -18 7 -9 10 -8 11 6 5 10 -3 15 -9 12 -12z m-795 -26 c0
-3 -4 -8 -10 -11 -5 -3 -10 -1 -10 4 0 6 5 11 10 11 6 0 10 -2 10 -4z m697
-93 c-4 -3 -1 -13 6 -22 11 -14 10 -14 -5 -2 -16 12 -16 31 -1 31 4 0 3 -3 0
-7z m63 -3 c0 -5 -2 -10 -4 -10 -3 0 -8 5 -11 10 -3 6 -1 10 4 10 6 0 11 -4
11 -10z m44 1 c4 -5 -3 -7 -14 -4 -23 6 -26 13 -6 13 8 0 17 -4 20 -9z m-164
-15 c0 -3 -4 -8 -10 -11 -5 -3 -10 -1 -10 4 0 6 5 11 10 11 6 0 10 -2 10 -4z"/>
<path d="M6135 7661 c-3 -6 3 -9 14 -8 11 0 17 5 15 9 -7 11 -22 10 -29 -1z"/>
<path d="M6271 7625 c4 -3 17 -8 30 -11 30 -6 39 -9 64 -18 37 -14 44 -15 50
-7 2 5 -12 12 -33 17 -20 4 -41 9 -47 10 -31 9 -69 14 -64 9z"/>
<path d="M6289 7509 c-16 -16 -15 -17 16 -14 37 4 125 -13 125 -24 0 -4 8 -7
18 -7 10 0 19 6 19 13 0 7 -3 10 -7 8 -9 -5 -141 30 -135 36 3 3 -1 6 -7 5 -7
0 -20 -8 -29 -17z"/>
<path d="M5855 7450 c-3 -5 -1 -10 4 -10 6 0 11 5 11 10 0 6 -2 10 -4 10 -3 0
-8 -4 -11 -10z"/>
<path d="M9086 5012 c-2 -4 4 -8 14 -8 10 0 16 4 14 8 -3 4 -9 8 -14 8 -5 0
-11 -4 -14 -8z"/>
<path d="M9063 4828 c-4 -7 -1 -8 7 -3 8 5 11 3 8 -6 -3 -8 -11 -13 -17 -11
-7 1 -9 -2 -6 -8 5 -8 14 -5 27 7 15 13 19 14 16 3 -2 -8 -6 -17 -10 -20 -3
-3 0 -13 7 -23 11 -16 13 -13 11 24 -1 32 -5 43 -18 45 -10 1 -21 -3 -25 -8z"/>
<path d="M3974 8865 c-4 -8 -10 -13 -15 -10 -4 3 -13 -3 -19 -14 -7 -14 -7
-22 2 -27 7 -4 8 -3 4 4 -4 7 -1 12 7 12 7 0 19 11 25 25 6 14 9 25 6 25 -2 0
-7 -7 -10 -15z"/>
<path d="M4075 8860 c6 -30 16 -40 12 -12 -2 12 -6 24 -10 28 -3 4 -4 -4 -2
-16z"/>
<path d="M4133 8865 c0 -8 4 -12 9 -9 5 3 6 10 3 15 -9 13 -12 11 -12 -6z"/>
<path d="M3863 8795 c-15 -19 -32 -35 -37 -35 -5 0 -3 7 4 15 10 12 8 13 -12
9 -12 -4 -30 -7 -39 -7 -13 -1 -14 -5 -5 -19 9 -16 12 -16 14 -3 4 18 12 19
34 1 10 -7 14 -17 10 -21 -4 -5 -1 -5 6 -1 7 5 11 10 8 13 -3 3 8 23 25 44 17
22 28 39 25 39 -3 0 -18 -16 -33 -35z"/>
<path d="M3897 8803 c-11 -13 -20 -30 -21 -36 -1 -7 -6 -19 -11 -27 -8 -13 -7
-13 8 -1 9 7 15 17 12 21 -2 3 3 17 11 29 13 19 18 20 32 9 16 -12 16 -11 2 7
-8 11 -14 21 -15 22 0 0 -8 -10 -18 -24z"/>
<path d="M3716 8747 c3 -10 9 -15 12 -12 3 3 0 11 -7 18 -10 9 -11 8 -5 -6z"/>
<path d="M1915 8730 c-3 -5 -1 -10 4 -10 6 0 11 5 11 10 0 6 -2 10 -4 10 -3 0
-8 -4 -11 -10z"/>
<path d="M1947 8719 c7 -7 15 -10 18 -7 3 3 -2 9 -12 12 -14 6 -15 5 -6 -5z"/>
<path d="M2012 8716 c-12 -6 -20 -16 -18 -22 2 -6 -5 -16 -15 -23 -11 -6 -18
-15 -15 -19 3 -5 0 -14 -5 -22 -8 -13 -12 -12 -24 4 -8 10 -12 23 -8 29 3 5 9
4 14 -4 4 -7 5 -17 2 -23 -3 -5 -2 -6 4 -3 12 7 9 55 -4 68 -4 4 -19 -1 -32
-12 -13 -10 -20 -19 -15 -19 4 0 16 7 26 17 10 9 18 11 18 6 0 -6 -6 -16 -14
-22 -13 -11 -19 -54 -6 -46 3 1 11 -3 18 -11 7 -8 9 -14 3 -14 -5 0 -8 -8 -7
-17 2 -10 -5 -28 -15 -41 -10 -13 -16 -29 -13 -37 3 -7 1 -16 -5 -19 -6 -4 -7
-14 -4 -22 4 -12 -1 -14 -23 -12 -19 2 -28 -1 -27 -9 5 -23 -14 -14 -20 9 -4
12 -9 20 -12 16 -9 -8 17 -58 26 -52 15 9 10 -13 -6 -26 -12 -10 -15 -10 -15
4 0 9 -5 16 -10 16 -12 0 4 -35 20 -45 6 -3 10 -11 10 -16 0 -6 -4 -8 -9 -5
-14 9 -22 -24 -11 -45 6 -10 13 -19 16 -19 3 0 2 5 -2 12 -4 6 -3 8 4 4 6 -4
9 3 8 19 -2 13 0 23 4 20 3 -2 6 6 5 18 -1 12 0 27 4 32 9 16 10 35 2 35 -4 0
-8 7 -8 15 0 17 13 20 22 5 4 -6 12 -7 18 -3 9 5 9 3 0 -8 -11 -14 -17 -35
-29 -104 -3 -16 -9 -34 -14 -39 -5 -5 -6 -16 -3 -25 4 -14 3 -14 -6 -1 -7 9
-11 10 -11 3 0 -6 5 -15 11 -19 7 -4 0 -13 -17 -25 -21 -14 -31 -15 -41 -7
-10 8 -17 8 -25 0 -12 -12 -3 -32 15 -32 7 0 6 4 -3 10 -8 5 -11 12 -7 16 10
11 36 -16 30 -32 -3 -7 -10 -11 -15 -8 -6 4 -2 -5 7 -20 10 -15 15 -29 12 -32
-3 -3 -10 4 -17 15 -6 12 -16 21 -23 21 -7 0 -8 -3 -2 -8 28 -20 38 -42 25
-57 -10 -13 -10 -19 3 -33 10 -11 13 -22 7 -31 -4 -8 -5 -21 -2 -30 5 -14 4
-14 -11 -2 -14 11 -15 17 -6 28 9 10 9 17 1 25 -12 12 -32 3 -32 -15 0 -7 4
-6 10 3 5 8 12 11 16 7 4 -4 2 -13 -4 -19 -9 -9 -7 -17 10 -35 l21 -23 -24 -9
c-23 -10 -22 -10 6 -7 17 3 32 5 34 5 2 1 -2 8 -9 16 -10 12 -10 15 0 15 9 0
9 4 2 13 -7 8 -7 18 -2 27 5 8 6 19 3 25 -4 5 -2 6 3 2 4 -4 9 -41 9 -82 1
-41 4 -77 8 -81 3 -4 2 -15 -4 -25 -7 -14 -6 -19 2 -19 7 0 9 -3 6 -7 -4 -3
-2 -12 5 -20 9 -11 7 -12 -7 -7 -13 5 -16 4 -11 -4 4 -7 14 -12 22 -12 8 0 14
-4 14 -9 0 -13 60 -32 92 -29 15 1 25 4 23 6 -7 7 30 39 39 34 5 -3 7 2 3 10
-3 9 1 25 9 37 8 12 13 25 10 30 -3 5 1 12 10 15 8 3 13 10 10 15 -9 14 21 78
39 85 11 4 15 2 12 -6 -2 -7 -11 -12 -18 -10 -8 2 -11 0 -7 -4 4 -4 3 -13 -3
-21 -6 -7 -8 -13 -4 -13 4 0 1 -8 -6 -17 -13 -15 -12 -15 12 0 14 10 29 14 32
10 4 -3 7 -1 7 6 0 8 -8 10 -22 6 -20 -6 -21 -5 -8 6 8 8 20 21 28 29 12 13
13 13 9 -1 -3 -9 -1 -22 4 -30 5 -9 7 1 5 28 -2 30 1 44 12 48 11 4 12 8 2 20
-7 8 -16 12 -21 9 -10 -6 -12 9 -2 19 3 4 14 0 23 -8 15 -14 19 -14 31 2 12
16 12 17 -2 6 -22 -18 -33 -3 -11 14 15 13 15 14 0 10 -23 -8 -30 3 -12 21 14
13 17 13 25 1 6 -10 9 -11 9 -1 0 7 -11 17 -25 24 -13 6 -22 15 -18 21 3 6 1
7 -6 3 -6 -4 -8 -12 -5 -18 4 -6 3 -8 -3 -5 -5 3 -10 0 -10 -8 0 -11 4 -12 14
-3 7 6 16 9 18 6 3 -3 -1 -11 -9 -17 -11 -9 -20 -10 -33 -2 -10 6 -13 11 -7
11 6 0 11 7 12 15 1 8 3 21 4 28 1 8 14 14 30 14 24 0 26 -3 16 -16 -7 -9 -8
-13 -4 -9 5 4 14 0 21 -9 9 -13 14 -13 20 -3 5 8 4 11 -2 7 -6 -4 -13 0 -17 8
-3 8 -1 17 3 20 5 2 11 14 14 25 3 11 1 18 -4 14 -5 -3 -9 -11 -9 -19 0 -8 -7
-11 -20 -8 -11 3 -20 10 -20 15 0 6 7 8 15 4 8 -3 15 -1 15 4 0 6 -5 10 -11
10 -5 0 -8 4 -5 9 3 4 17 7 31 6 14 -2 27 1 30 5 3 5 -7 7 -21 4 -23 -4 -25
-3 -15 9 9 12 8 16 -4 21 -16 6 -16 26 0 38 5 4 6 10 2 14 -9 9 -18 1 -22 -23
-2 -10 -4 -19 -5 -20 -2 -2 -3 -8 -4 -15 0 -6 -8 -13 -16 -15 -9 -3 -11 -1 -5
4 6 4 10 18 9 31 -1 12 3 22 7 22 5 0 9 5 9 11 0 5 -4 8 -9 5 -10 -6 -9 12 0
29 3 6 5 25 4 42 -1 37 16 41 47 11 20 -20 38 -23 38 -8 0 6 -3 9 -7 9 -19 -3
-33 2 -33 12 0 5 5 7 12 3 7 -4 8 -3 4 4 -4 6 -2 21 5 33 6 12 7 19 1 15 -5
-3 -13 1 -16 10 -5 12 -1 14 15 9 15 -5 19 -4 15 4 -4 6 -14 11 -22 11 -20 0
-18 18 4 23 9 3 5 4 -10 3 -15 -1 -31 -6 -35 -11 -4 -4 -3 -5 3 -2 7 4 15 0
18 -9 5 -12 2 -15 -9 -10 -9 3 -13 2 -10 -4 3 -6 2 -10 -2 -10 -5 0 -9 26 -10
58 -1 82 -6 122 -16 122 -4 0 -6 4 -3 8 6 10 -29 31 -59 35 -11 1 -24 5 -30 8
-5 3 -20 0 -33 -5z m182 -241 c3 -8 3 -21 0 -29 -5 -12 -9 -11 -25 5 -25 25
-24 32 4 18 20 -11 21 -11 8 4 -7 10 -9 17 -3 17 5 0 12 -7 16 -15z m-24 -35
c0 -5 -2 -10 -4 -10 -3 0 -8 5 -11 10 -3 6 -1 10 4 10 6 0 11 -4 11 -10z
m-319 -53 c-6 -8 -7 -18 -3 -22 4 -5 1 -5 -6 -1 -10 6 -10 11 -1 22 6 8 14 14
16 14 3 0 0 -6 -6 -13z m-11 -67 c0 -5 -4 -10 -10 -10 -5 0 -10 5 -10 10 0 6
5 10 10 10 6 0 10 -4 10 -10z m314 -78 c-11 -10 -20 -27 -19 -39 1 -14 -3 -19
-12 -16 -9 4 -10 9 -3 18 5 6 7 15 3 19 -4 3 3 13 15 22 12 8 19 21 16 27 -4
7 -1 6 7 -1 12 -11 11 -16 -7 -30z m-312 -29 c-6 -2 -10 -9 -6 -14 3 -5 0 -9
-7 -9 -8 0 -8 -4 -2 -12 12 -16 13 -49 1 -42 -4 3 -6 -5 -5 -18 2 -13 -3 -28
-12 -35 -14 -11 -14 -12 3 -13 21 0 14 -13 -9 -16 -18 -3 -29 25 -12 32 15 5
18 64 4 64 -5 0 -4 7 3 15 6 8 8 20 4 26 -4 7 -3 9 3 6 6 -4 13 0 17 8 3 8 11
15 18 14 10 0 10 -2 0 -6z m298 -140 c0 -3 -3 -3 -7 0 -3 4 -12 2 -20 -5 -17
-14 -28 -4 -19 17 4 13 10 14 26 5 11 -6 20 -14 20 -17z m-31 -40 c6 -11 11
-13 11 -5 0 7 5 10 11 6 8 -5 6 -10 -5 -16 -9 -5 -14 -13 -11 -17 2 -5 -7 -8
-20 -8 -26 0 -33 11 -13 23 7 5 8 3 3 -6 -5 -9 -4 -11 3 -6 9 5 9 13 2 27 -14
24 5 26 19 2z"/>
<path d="M1815 8160 c-3 -5 -1 -10 4 -10 6 0 11 5 11 10 0 6 -2 10 -4 10 -3 0
-8 -4 -11 -10z"/>
<path d="M8102 8707 c-25 -8 -34 -18 -43 -48 -22 -72 3 -105 111 -147 78 -30
126 -39 206 -38 79 1 96 12 111 67 12 40 7 58 -21 82 -74 65 -273 111 -364 84z"/>
<path d="M1890 8700 c-9 -6 -10 -10 -3 -10 6 0 15 5 18 10 8 12 4 12 -15 0z"/>
<path d="M1865 8659 c-5 -8 -4 -10 0 -6 5 4 15 -3 22 -15 7 -13 12 -18 13 -12
0 5 -6 18 -13 29 -12 15 -15 16 -22 4z"/>
<path d="M1839 8655 c-1 -3 -2 -8 -3 -12 -1 -5 -5 -15 -10 -23 -7 -12 -6 -13
4 -3 13 12 23 43 14 43 -2 0 -5 -2 -5 -5z"/>
<path d="M2170 8640 c0 -5 5 -10 10 -10 6 0 10 5 10 10 0 6 -4 10 -10 10 -5 0
-10 -4 -10 -10z"/>
<path d="M1856 8623 c-6 -14 -5 -15 5 -6 7 7 10 15 7 18 -3 3 -9 -2 -12 -12z"/>
<path d="M2215 8620 c-3 -6 1 -7 9 -4 18 7 21 14 7 14 -6 0 -13 -4 -16 -10z"/>
<path d="M2189 8613 c-7 -44 -6 -63 1 -63 5 0 7 12 4 26 -3 16 -1 23 6 19 6
-3 7 0 4 9 -7 17 -13 21 -15 9z"/>
<path d="M1881 8594 c10 -13 10 -17 -2 -25 -8 -5 -18 -9 -23 -9 -4 0 2 -9 15
-21 18 -16 20 -19 6 -15 -10 3 -16 2 -12 -3 3 -5 -1 -11 -7 -14 -7 -2 -1 -4
13 -3 24 1 32 16 17 32 -10 9 3 35 13 28 5 -3 6 -11 2 -17 -4 -7 0 -6 10 2 20
16 22 22 6 19 -6 -2 -14 3 -16 10 -3 6 1 10 9 9 7 -2 9 -2 4 1 -4 2 -2 8 5 13
11 7 11 9 -3 9 -9 0 -19 -6 -21 -12 -4 -10 -6 -10 -6 0 -1 6 -6 12 -12 12 -8
0 -7 -5 2 -16z"/>
<path d="M2234 8602 c4 -3 14 -7 22 -8 9 -1 13 0 10 4 -4 3 -14 7 -22 8 -9 1
-13 0 -10 -4z"/>
<path d="M1855 8590 c6 -10 4 -12 -11 -6 -15 6 -17 5 -6 -5 9 -9 15 -10 23 -2
8 8 7 13 -2 18 -8 6 -10 4 -4 -5z"/>
<path d="M2217 8583 c-10 -10 -8 -33 3 -33 5 0 6 7 3 17 -5 12 -3 14 7 8 9 -5
11 -4 6 3 -8 14 -10 14 -19 5z"/>
<path d="M1816 8567 c3 -10 9 -15 12 -12 3 3 0 11 -7 18 -10 9 -11 8 -5 -6z"/>
<path d="M2260 8560 c8 -5 20 -10 25 -10 6 0 3 5 -5 10 -8 5 -19 10 -25 10 -5
0 -3 -5 5 -10z"/>
<path d="M1790 8556 c0 -2 8 -10 18 -17 15 -13 16 -12 3 4 -13 16 -21 21 -21
13z"/>
<path d="M6176 8551 c-4 -5 18 -17 46 -26 29 -9 85 -29 123 -43 39 -15 72 -27
75 -27 35 -7 90 -28 95 -35 3 -5 13 -6 22 -3 12 5 14 3 8 -7 -5 -9 -4 -11 3
-6 6 4 24 -1 39 -11 15 -10 24 -12 19 -5 -5 9 -2 10 16 3 21 -9 57 -22 68 -26
3 -1 19 -7 35 -14 17 -7 45 -15 63 -18 17 -3 32 -10 32 -14 0 -5 3 -8 8 -8 4
1 9 0 12 -1 24 -9 70 -16 128 -19 7 -1 11 -5 8 -9 -2 -4 4 -9 15 -9 10 -1 19
3 19 8 0 6 -4 7 -10 4 -5 -3 -10 -2 -10 3 0 8 -35 23 -43 19 -2 -1 -11 6 -21
16 -10 9 -26 17 -37 17 -10 0 -19 4 -19 9 0 10 -27 21 -44 20 -5 0 -12 4 -16
11 -4 6 -16 12 -28 13 -11 0 -18 5 -16 9 3 4 -8 10 -23 14 -15 3 -38 13 -50
20 -13 8 -23 12 -23 8 0 -4 -7 -1 -15 6 -8 6 -18 9 -24 6 -5 -3 -11 -2 -13 4
-1 5 -14 11 -28 14 -14 2 -26 5 -27 7 -2 1 -7 3 -13 4 -5 1 -11 3 -12 5 -2 1
-10 3 -18 5 -8 1 -58 14 -110 28 -106 29 -225 43 -234 28z"/>
<path d="M1830 8525 c-11 -13 -10 -14 4 -9 9 3 16 10 16 15 0 13 -6 11 -20 -6z"/>
<path d="M1786 8522 c-3 -5 1 -9 9 -9 8 0 12 4 9 9 -3 4 -7 8 -9 8 -2 0 -6 -4
-9 -8z"/>
<path d="M2230 8519 c0 -5 5 -7 10 -4 6 3 10 8 10 11 0 2 -4 4 -10 4 -5 0 -10
-5 -10 -11z"/>
<path d="M6112 8505 c3 -3 16 -8 28 -10 12 -2 20 -1 16 2 -4 4 -16 8 -28 10
-12 2 -19 1 -16 -2z"/>
<path d="M1833 8484 c0 -8 5 -13 11 -11 6 3 18 1 27 -4 11 -5 16 -3 16 7 0 8
-5 13 -11 11 -6 -3 -18 -1 -27 4 -11 5 -16 3 -16 -7z"/>
<path d="M2275 8490 c-4 -6 -10 -8 -15 -5 -4 3 -14 -3 -21 -13 -12 -15 -12
-16 2 -5 9 7 18 11 21 8 3 -3 11 1 18 10 7 8 10 15 7 15 -3 0 -9 -5 -12 -10z"/>
<path d="M2661 8455 c-1 -5 3 -17 8 -24 6 -9 6 -22 0 -33 -5 -10 -7 -18 -5
-18 17 0 23 38 10 60 -7 14 -13 21 -13 15z"/>
<path d="M1776 8438 c3 -5 10 -6 15 -3 13 9 11 12 -6 12 -8 0 -12 -4 -9 -9z"/>
<path d="M2226 8437 c3 -10 9 -15 12 -12 3 3 0 11 -7 18 -10 9 -11 8 -5 -6z"/>
<path d="M2630 8439 c0 -5 5 -7 10 -4 6 3 10 8 10 11 0 2 -4 4 -10 4 -5 0 -10
-5 -10 -11z"/>
<path d="M2637 8404 c-12 -16 -15 -29 -9 -40 8 -15 10 -15 15 0 4 10 3 15 -3
11 -6 -3 -10 -1 -10 4 0 6 4 11 9 11 8 0 24 30 19 35 -2 2 -11 -8 -21 -21z"/>
<path d="M1750 8406 c0 -2 7 -7 16 -10 8 -3 12 -2 9 4 -6 10 -25 14 -25 6z"/>
<path d="M2159 8408 c-8 -30 -6 -38 7 -27 8 7 14 7 14 1 0 -5 -10 -16 -22 -24
-17 -11 -19 -16 -8 -23 8 -5 11 -4 7 2 -4 7 3 10 18 9 16 0 23 -6 20 -14 -3
-7 -1 -11 4 -8 18 11 8 55 -15 71 -13 8 -24 14 -25 13z m36 -47 c-3 -6 -11
-11 -17 -11 -6 0 -6 6 2 15 14 17 26 13 15 -4z"/>
<path d="M2246 8402 c-3 -5 1 -9 9 -9 8 0 12 4 9 9 -3 4 -7 8 -9 8 -2 0 -6 -4
-9 -8z"/>
<path d="M2306 8402 c-3 -5 1 -9 9 -9 8 0 12 4 9 9 -3 4 -7 8 -9 8 -2 0 -6 -4
-9 -8z"/>
<path d="M2592 8396 c7 -8 15 -12 17 -11 5 6 -10 25 -20 25 -5 0 -4 -6 3 -14z"/>
<path d="M2554 8359 c-2 -35 5 -33 12 5 2 14 1 26 -3 26 -5 0 -9 -14 -9 -31z"/>
<path d="M1796 8355 c4 -8 8 -15 10 -15 2 0 4 7 4 15 0 8 -4 15 -10 15 -5 0
-7 -7 -4 -15z"/>
<path d="M2582 8364 c4 -4 -1 -19 -12 -34 -11 -16 -20 -32 -20 -37 0 -4 5 0
11 10 8 13 14 15 28 7 26 -14 43 8 28 35 -7 11 -19 22 -27 23 -8 2 -12 0 -8
-4z m31 -29 c4 -8 3 -16 -1 -19 -13 -8 -35 11 -28 23 10 15 23 14 29 -4z"/>
<path d="M1774 8352 c3 -6 -2 -13 -11 -15 -16 -4 -16 -5 -1 -6 21 -1 32 15 17
25 -7 4 -9 3 -5 -4z"/>
<path d="M2220 8356 c0 -2 7 -7 16 -10 8 -3 12 -2 9 4 -6 10 -25 14 -25 6z"/>
<path d="M2216 8314 c-3 -8 0 -16 7 -20 7 -4 9 -4 5 1 -4 4 0 13 8 20 15 11
15 12 1 12 -9 0 -18 -6 -21 -13z"/>
<path d="M3174 8319 c-3 -6 6 -23 21 -38 15 -14 24 -20 20 -12 -6 11 -4 13 9
8 11 -4 15 -3 11 4 -4 6 -13 8 -20 5 -20 -7 -26 5 -12 23 11 14 10 15 -7 1
-18 -14 -19 -13 -13 3 7 19 2 23 -9 6z"/>
<path d="M2509 8303 c-13 -17 -13 -17 6 -3 11 8 22 16 24 17 2 2 0 3 -6 3 -6
0 -17 -8 -24 -17z"/>
<path d="M1768 8303 c6 -2 9 -10 6 -15 -4 -7 -2 -8 5 -4 13 9 5 26 -12 25 -9
0 -8 -2 1 -6z"/>
<path d="M2185 8299 c-4 -6 -5 -12 -2 -15 2 -3 7 2 10 11 7 17 1 20 -8 4z"/>
<path d="M6565 8300 c-3 -5 -1 -10 4 -10 6 0 11 5 11 10 0 6 -2 10 -4 10 -3 0
-8 -4 -11 -10z"/>
<path d="M1788 8278 c-22 -22 -24 -35 -2 -17 13 11 14 9 8 -16 -5 -21 -4 -27
7 -23 14 5 20 51 9 66 -3 5 -13 0 -22 -10z"/>
<path d="M2201 8274 c0 -11 3 -14 6 -6 3 7 2 16 -1 19 -3 4 -6 -2 -5 -13z"/>
<path d="M2520 8275 c-11 -13 -10 -14 4 -9 9 3 16 10 16 15 0 13 -6 11 -20 -6z"/>
<path d="M1709 8237 c6 -8 9 -16 6 -19 -3 -2 2 -5 10 -5 13 0 13 3 -2 19 -19
21 -31 25 -14 5z"/>
<path d="M7030 8235 c7 -8 16 -13 20 -10 5 3 11 1 15 -5 3 -5 11 -10 18 -10
13 0 -19 24 -47 34 -16 5 -17 4 -6 -9z"/>
<path d="M2220 8226 c0 -2 8 -10 18 -17 15 -13 16 -12 3 4 -13 16 -21 21 -21
13z"/>
<path d="M2520 8218 c-12 -8 -12 -9 3 -4 12 4 17 0 17 -16 0 -18 -2 -19 -17
-7 -16 13 -17 12 -4 -3 16 -21 31 -15 31 12 0 24 -12 31 -30 18z"/>
<path d="M1690 8186 c0 -2 7 -7 16 -10 8 -3 12 -2 9 4 -6 10 -25 14 -25 6z"/>
<path d="M2214 8160 c0 -13 4 -16 10 -10 7 7 7 13 0 20 -6 6 -10 3 -10 -10z"/>
<path d="M2195 8121 c-3 -5 -2 -12 3 -15 5 -3 9 1 9 9 0 17 -3 19 -12 6z"/>
<path d="M2513 8114 c0 -10 4 -11 13 -3 8 7 14 6 17 -1 3 -6 5 -6 3 1 -3 17
-33 20 -33 3z"/>
<path d="M1715 8100 c-3 -5 -1 -10 4 -10 6 0 11 5 11 10 0 6 -2 10 -4 10 -3 0
-8 -4 -11 -10z"/>
<path d="M1760 8101 c0 -7 -4 -10 -8 -7 -4 2 -9 -5 -9 -16 -2 -21 -2 -21 14 1
8 12 12 25 9 28 -3 4 -6 1 -6 -6z"/>
<path d="M2541 8074 c0 -11 3 -14 6 -6 3 7 2 16 -1 19 -3 4 -6 -2 -5 -13z"/>
<path d="M1696 8061 c9 -9 34 -9 34 -1 0 5 -9 8 -20 7 -10 -1 -17 -3 -14 -6z"/>
<path d="M2215 8041 c-3 -5 -2 -12 3 -15 5 -3 9 1 9 9 0 17 -3 19 -12 6z"/>
<path d="M2598 8005 c2 -14 8 -27 12 -30 4 -2 5 7 2 20 -2 14 -8 27 -12 30 -4
2 -5 -7 -2 -20z"/>
<path d="M2574 8000 c0 -13 4 -16 10 -10 7 7 7 13 0 20 -6 6 -10 3 -10 -10z"/>
<path d="M2654 7989 c-3 -6 -1 -16 4 -21 8 -8 11 -5 9 11 -1 24 -3 25 -13 10z"/>
<path d="M1748 7963 c7 -3 16 -2 19 1 4 3 -2 6 -13 5 -11 0 -14 -3 -6 -6z"/>
<path d="M2570 7956 c0 -8 4 -17 9 -20 5 -4 7 3 4 14 -6 23 -13 26 -13 6z"/>
<path d="M1715 7950 c-4 -6 -11 -7 -17 -4 -7 4 -8 2 -4 -4 7 -12 36 -5 36 9 0
12 -7 11 -15 -1z"/>
<path d="M9704 7928 c-3 -4 -10 -5 -16 -2 -7 4 -8 2 -4 -4 4 -7 2 -12 -3 -12
-6 0 -11 -11 -11 -25 0 -25 36 -126 48 -135 4 -3 12 -14 18 -24 6 -11 23 -29
37 -40 35 -26 77 -13 88 25 8 33 -25 136 -52 160 -10 9 -19 21 -19 27 0 24
-74 50 -86 30z"/>
<path d="M1750 7923 c0 -6 10 -19 22 -27 22 -16 19 -20 -14 -17 -9 1 -19 -2
-21 -6 -6 -10 40 -10 50 0 3 4 11 7 17 7 6 -1 0 -10 -13 -21 -13 -11 -21 -22
-18 -26 4 -3 15 5 26 18 18 21 18 25 5 36 -10 7 -12 13 -5 18 6 3 11 12 11 18
0 7 -5 4 -11 -5 -5 -10 -15 -18 -21 -18 -7 0 -6 5 2 15 9 10 9 15 1 15 -6 0
-11 -6 -11 -12 0 -9 -4 -8 -10 2 -6 9 -10 10 -10 3z"/>
<path d="M2130 7920 c-8 -5 -10 -10 -5 -10 6 0 17 5 25 10 8 5 11 10 5 10 -5
0 -17 -5 -25 -10z"/>
<path d="M1713 7886 c-2 -19 -1 -19 8 -3 6 9 16 14 22 11 7 -4 8 -3 4 1 -15
17 -33 12 -34 -9z"/>
<path d="M2073 7898 c-12 -6 -24 -17 -27 -25 -3 -8 -1 -11 4 -8 6 4 8 -3 6
-17 -3 -13 -5 -27 -5 -31 -1 -5 -5 -6 -11 -2 -5 3 -7 13 -4 23 4 13 3 12 -7
-2 -10 -16 -10 -21 0 -24 9 -3 7 -9 -5 -23 -9 -10 -14 -19 -9 -19 9 0 49 51
51 65 1 5 2 15 3 20 1 6 6 3 11 -5 7 -12 9 -10 8 7 -2 14 -7 19 -17 15 -9 -3
-12 -1 -7 6 4 7 13 12 21 12 8 0 17 5 20 10 8 12 -3 12 -32 -2z"/>
<path d="M2135 7890 c-4 -6 -11 -7 -17 -4 -7 4 -8 2 -4 -4 10 -16 23 -15 30 3
6 17 0 20 -9 5z"/>
<path d="M2104 7849 c0 -10 4 -19 8 -19 4 0 8 6 8 14 0 8 -4 17 -8 20 -4 2 -8
-4 -8 -15z"/>
<path d="M1716 7847 c3 -10 9 -15 12 -12 3 3 0 11 -7 18 -10 9 -11 8 -5 -6z"/>
<path d="M2073 7798 c1 -7 -4 -12 -11 -10 -8 1 -11 -2 -7 -8 3 -5 2 -10 -3
-10 -6 0 -12 -7 -15 -14 -4 -10 -1 -13 8 -10 7 3 16 12 19 20 3 9 9 13 14 10
4 -2 9 4 9 15 1 10 -2 19 -8 19 -5 0 -8 -6 -6 -12z"/>
<path d="M2130 7780 c0 -5 5 -10 11 -10 5 0 7 5 4 10 -3 6 -8 10 -11 10 -2 0
-4 -4 -4 -10z"/>
<path d="M2075 7751 c-3 -5 -2 -12 3 -15 5 -3 9 1 9 9 0 17 -3 19 -12 6z"/>
<path d="M9088 7409 c-26 -28 -48 -58 -48 -65 0 -8 -4 -14 -8 -14 -5 0 -19
-22 -32 -50 -13 -27 -27 -50 -32 -50 -4 0 -8 -5 -8 -12 0 -6 -9 -30 -20 -53
-28 -57 -70 -184 -70 -210 0 -16 13 -28 47 -46 26 -13 54 -22 62 -21 26 6 85
77 131 157 78 138 148 323 135 357 -5 13 -85 58 -102 58 -4 0 -29 -23 -55 -51z"/>
<path d="M8410 7004 c0 -8 5 -12 10 -9 6 3 10 10 10 16 0 5 -4 9 -10 9 -5 0
-10 -7 -10 -16z"/>
<path d="M8313 6969 c10 -13 20 -32 23 -41 3 -9 13 -19 21 -22 10 -4 8 6 -9
36 -13 23 -30 44 -38 46 -11 4 -11 0 3 -19z"/>
<path d="M8805 6691 c3 -10 27 -63 54 -117 26 -55 54 -114 62 -131 8 -18 17
-33 21 -33 5 0 8 -8 8 -18 0 -10 5 -23 12 -30 6 -6 13 -17 14 -24 3 -20 57
-132 67 -139 5 -4 10 -18 10 -32 1 -14 5 -23 10 -20 7 4 11 -13 7 -32 -1 -5 2
-7 6 -2 9 8 45 -43 38 -54 -2 -4 -1 -10 4 -13 4 -2 8 9 7 25 0 16 -4 29 -9 29
-5 0 -7 3 -3 6 3 3 -1 23 -8 45 -8 22 -14 40 -14 42 2 12 -15 57 -23 57 -5 0
-7 3 -4 8 2 4 -4 25 -14 47 -11 22 -19 46 -20 53 0 6 -4 12 -10 12 -5 0 -10 9
-10 20 0 11 -5 20 -11 20 -5 0 -8 4 -4 9 3 5 -2 17 -11 25 -8 9 -12 16 -8 16
4 0 1 8 -7 18 -8 9 -24 36 -35 59 -10 24 -22 43 -26 43 -5 0 -8 6 -8 13 0 7
-11 24 -25 39 -14 15 -25 32 -25 38 0 5 -4 10 -10 10 -5 0 -10 7 -10 15 0 8
-7 15 -16 15 -11 0 -13 -6 -9 -19z"/>
<path d="M9221 6524 c-19 -14 -22 -22 -16 -53 8 -42 46 -135 57 -139 4 -2 8
-8 8 -13 0 -16 75 -121 108 -153 25 -23 36 -27 59 -21 35 8 43 21 36 60 -6 33
-79 192 -97 211 -6 6 -20 24 -31 40 -26 36 -77 84 -90 84 -6 0 -21 -7 -34 -16z"/>
<path d="M8995 5938 c1 -13 6 -21 11 -19 10 3 7 21 -5 34 -4 4 -7 -3 -6 -15z"/>
<path d="M9034 5556 c0 -14 5 -22 12 -19 6 2 10 13 7 24 -7 27 -19 24 -19 -5z"/>
<path d="M1149 2501 c6 -10 7 -21 4 -25 -3 -3 0 -6 7 -6 7 0 10 -3 7 -7 -4 -3
0 -17 9 -31 9 -13 11 -21 5 -18 -11 7 5 -35 24 -64 17 -26 52 -41 63 -27 11
14 12 47 2 47 -4 0 -7 9 -6 20 0 11 -3 19 -8 19 -4 0 -17 14 -27 31 -25 40
-49 65 -72 73 -14 5 -16 3 -8 -12z"/>
<path d="M1294 2255 c0 -14 3 -25 6 -25 3 0 7 -15 8 -32 2 -18 7 -34 12 -36 6
-2 10 -8 10 -14 0 -5 7 -16 15 -24 8 -9 15 -13 15 -9 0 4 7 -1 16 -9 8 -9 20
-16 26 -16 6 0 8 3 5 6 -3 4 -2 14 3 24 5 10 6 21 2 25 -4 3 -8 11 -8 16 -1 5
-3 11 -4 14 -1 3 -4 10 -5 15 -1 6 -4 12 -5 15 -1 3 -3 10 -4 17 -1 11 -71 57
-86 58 -4 0 -6 -11 -6 -25z"/>
<path d="M9517 1610 c-3 -13 0 -20 10 -20 8 0 11 5 7 12 -5 7 -3 8 7 2 18 -11
70 -14 63 -3 -3 5 -16 9 -30 9 -14 0 -22 4 -19 10 3 6 -3 10 -13 10 -11 0 -22
-9 -25 -20z"/>
<path d="M9981 1581 c-11 -7 -10 -10 5 -15 29 -8 134 -4 128 6 -3 5 -15 6 -25
3 -11 -4 -26 -2 -34 5 -9 7 -15 8 -20 0 -3 -5 -15 -10 -26 -10 -11 0 -17 5
-14 10 8 12 4 12 -14 1z"/>
<path d="M10142 1574 c-9 -10 -10 -19 -3 -32 10 -16 10 -16 11 1 0 18 15 23
24 9 10 -16 59 -7 62 10 2 14 -2 15 -22 8 -17 -7 -24 -6 -24 2 0 6 -3 8 -7 5
-3 -4 -11 -3 -17 2 -7 6 -16 4 -24 -5z"/>
<path d="M9716 1565 c4 -8 10 -12 15 -9 11 6 2 24 -11 24 -5 0 -7 -7 -4 -15z"/>
<path d="M9801 1573 c-1 -17 16 -25 25 -12 4 7 3 9 -4 5 -5 -3 -13 0 -15 6 -4
9 -6 10 -6 1z"/>
<path d="M9750 1562 c0 -4 9 -8 20 -8 11 0 20 4 20 8 0 4 -9 8 -20 8 -11 0
-20 -4 -20 -8z"/>
<path d="M9710 1229 c-19 -4 -33 -7 -30 -8 18 -8 219 -11 223 -4 3 4 -18 9
-46 11 -29 2 -65 4 -82 5 -16 1 -46 -1 -65 -4z"/>
<path d="M7469 1003 c-13 -16 -12 -17 4 -4 9 7 17 15 17 17 0 8 -8 3 -21 -13z"/>
<path d="M2721 953 c-1 -7 -11 -10 -26 -7 -17 3 -27 -2 -35 -16 -8 -15 -8 -20
2 -20 7 0 32 -18 56 -40 23 -22 47 -40 52 -40 6 0 10 -4 10 -10 0 -5 7 -10 15
-10 7 0 18 -6 22 -13 19 -32 90 -41 107 -15 14 23 -11 67 -48 86 -14 7 -26 17
-26 21 0 5 -16 12 -35 15 -19 4 -35 12 -35 18 0 5 -7 8 -15 4 -8 -3 -15 -1
-15 5 0 6 -4 8 -9 4 -5 -3 -12 3 -14 12 -3 10 -5 13 -6 6z"/>
<path d="M9159 884 c-9 -11 -9 -14 1 -14 7 0 10 -7 7 -15 -9 -21 11 -29 79
-30 42 0 61 3 61 12 0 13 -47 33 -78 33 -9 0 -19 5 -21 12 -6 17 -35 18 -49 2z"/>
<path d="M9114 768 c-6 -9 6 -14 48 -21 18 -3 25 0 21 9 -5 14 -62 24 -69 12z"/>
<path d="M3830 581 c0 -4 16 -13 35 -21 19 -8 35 -17 35 -22 0 -4 7 -5 15 -2
8 4 15 1 15 -4 0 -11 38 -28 53 -24 4 1 7 -1 7 -6 0 -4 15 -13 33 -20 17 -7
49 -21 70 -32 20 -10 35 -15 32 -10 -3 5 8 2 25 -6 16 -9 34 -13 40 -9 5 3 10
1 10 -4 0 -6 8 -11 18 -11 10 0 24 -6 31 -12 11 -11 12 -10 6 2 -6 10 -1 8 13
-4 13 -11 22 -14 22 -7 0 9 4 8 14 -1 8 -7 13 -17 13 -22 -1 -5 13 -10 31 -12
18 -1 30 2 27 7 -4 5 -1 9 4 9 6 0 11 -6 11 -13 0 -16 41 -17 52 -2 4 6 8 1 8
-10 0 -15 3 -16 9 -7 4 8 14 13 22 12 61 -9 63 11 4 29 -25 7 -45 18 -45 25 0
7 -4 6 -9 -3 -6 -9 -11 -10 -15 -2 -4 6 -16 11 -26 11 -10 0 -21 6 -23 13 -4
9 -6 9 -6 -1 -1 -10 -5 -10 -17 2 -8 9 -19 14 -24 11 -5 -3 -11 -1 -15 5 -3 5
-17 10 -31 10 -13 0 -24 4 -24 8 0 9 -9 11 -54 15 -13 1 -22 4 -20 6 6 7 -69
31 -78 25 -4 -3 -8 -1 -8 3 0 5 -14 14 -30 20 -23 9 -28 8 -23 0 3 -7 -3 -4
-14 5 -11 10 -32 19 -46 20 -15 1 -27 6 -27 10 0 4 -10 8 -23 8 -13 0 -27 3
-30 6 -9 10 -67 13 -67 5z m520 -205 c0 -2 -7 -7 -16 -10 -8 -3 -12 -2 -9 4 6
10 25 14 25 6z"/>
<path d="M3890 400 c0 -6 -5 -8 -12 -4 -10 6 -10 4 0 -8 10 -13 72 -32 72 -22
0 1 -13 12 -30 24 -16 12 -30 16 -30 10z"/>
<path d="M3975 374 c30 -17 82 -32 144 -40 18 -2 38 -7 44 -11 5 -3 7 -1 3 5
-6 11 -50 27 -96 36 -14 3 -38 8 -55 11 -16 3 -39 8 -50 11 -11 3 -7 -3 10
-12z"/>
<path d="M4816 288 c3 -5 10 -6 15 -3 13 9 11 12 -6 12 -8 0 -12 -4 -9 -9z"/>
<path d="M4858 293 c7 -3 16 -2 19 1 4 3 -2 6 -13 5 -11 0 -14 -3 -6 -6z"/>
</g>
</svg>
