<?xml version="1.0" standalone="no"?>
<!DOCTYPE svg PUBLIC "-//W3C//DTD SVG 20010904//EN"
 "http://www.w3.org/TR/2001/REC-SVG-20010904/DTD/svg10.dtd">
<svg version="1.0" xmlns="http://www.w3.org/2000/svg"
 width="500.000000pt" height="500.000000pt" viewBox="0 0 500.000000 500.000000"
 preserveAspectRatio="xMidYMid meet">
<metadata>
Created by potrace 1.14, written by Peter Selinger 2001-2017
</metadata>
<g transform="translate(0.000000,500.000000) scale(0.100000,-0.100000)"
fill="#000000" stroke="none">
<path d="M3670 3828 c-29 -32 -27 -81 6 -107 54 -42 118 -13 118 54 0 67 -79
101 -124 53z"/>
<path d="M2835 3643 c-39 -7 -112 -34 -164 -59 -147 -72 -274 -210 -328 -357
-17 -46 -17 -47 4 -68 32 -32 60 -17 88 47 67 151 195 270 348 324 305 107
640 -54 752 -362 25 -69 45 -88 92 -88 43 0 152 -42 206 -79 125 -86 199 -228
198 -381 0 -125 -46 -235 -136 -326 -58 -57 -162 -115 -241 -132 -23 -5 -413
-9 -880 -8 l-839 1 -67 25 c-72 26 -82 24 -93 -21 -9 -35 27 -61 116 -83 59
-14 159 -16 900 -16 644 1 848 4 895 14 194 41 362 201 421 400 65 218 -40
490 -239 617 -56 36 -167 79 -204 79 -21 0 -30 11 -59 76 -87 191 -249 331
-443 385 -91 26 -234 31 -327 12z"/>
<path d="M3531 3601 c-25 -25 -26 -44 -5 -65 31 -32 84 -14 84 29 -1 47 -47
68 -79 36z"/>
<path d="M3714 3471 c-48 -30 -67 -58 -72 -109 -9 -104 77 -176 178 -149 113
30 134 188 35 253 -37 24 -106 27 -141 5z"/>
<path d="M1603 3089 c-31 -16 -57 -70 -49 -103 18 -72 93 -97 154 -52 31 22
40 23 188 23 144 0 157 1 167 19 16 26 15 36 -1 57 -13 15 -35 17 -169 17
-138 0 -157 2 -181 20 -34 25 -80 33 -109 19z"/>
<path d="M2192 3038 c-17 -17 -15 -53 3 -68 22 -18 527 -19 549 0 19 15 21 51
4 68 -17 17 -539 17 -556 0z"/>
<path d="M2832 3038 c-17 -17 -15 -53 3 -68 10 -8 53 -12 127 -13 104 0 113 2
130 23 16 20 17 25 5 44 -13 19 -25 21 -133 24 -84 2 -123 -1 -132 -10z"/>
<path d="M1040 2913 c-28 -20 -48 -68 -42 -99 13 -67 107 -99 154 -52 l22 22
777 1 c823 0 809 -1 809 46 0 9 -7 25 -16 33 -14 14 -99 16 -792 16 l-776 0
-23 22 c-27 26 -84 31 -113 11z"/>
<path d="M2823 2868 c-19 -24 -22 -46 -9 -64 17 -23 112 -26 126 -4 16 25 11
59 -9 70 -27 14 -97 13 -108 -2z"/>
<path d="M1264 2750 c-61 -23 -78 -108 -33 -156 30 -32 93 -33 126 -2 l23 22
908 1 c499 1 910 3 915 4 4 0 13 12 19 26 9 21 8 28 -7 45 -18 20 -30 20 -932
20 -580 0 -913 4 -913 10 0 22 -71 43 -106 30z"/>
<path d="M3308 2699 c-11 -6 -18 -22 -18 -39 0 -18 7 -33 18 -38 19 -10 112
-9 129 1 21 13 22 48 2 68 -21 21 -101 26 -131 8z"/>
<path d="M907 2569 c-40 -23 -54 -102 -25 -137 35 -42 93 -46 142 -11 28 21
36 21 508 21 468 0 479 0 498 20 15 16 17 25 8 44 -6 13 -14 25 -17 25 -3 1
-225 2 -492 3 l-485 2 -24 22 c-26 24 -81 29 -113 11z"/>
<path d="M2115 2527 c-19 -10 -19 -51 -1 -70 22 -22 650 -21 672 0 17 18 18
59 2 70 -17 10 -654 11 -673 0z"/>
<path d="M1325 2384 c-50 -54 -21 -146 50 -160 22 -4 40 1 68 20 l38 26 754 0
c742 0 755 0 775 20 24 24 24 30 7 55 -13 17 -48 18 -777 18 l-762 0 -24 24
c-34 34 -97 32 -129 -3z"/>
<path d="M3165 2364 c-5 -1 -22 -5 -36 -8 -35 -8 -44 -41 -18 -67 28 -28 122
-27 142 2 16 22 12 58 -7 65 -16 6 -69 11 -81 8z"/>
<path d="M1050 1607 c-96 -46 -129 -202 -64 -300 74 -111 249 -87 288 41 7 20
4 22 -31 22 -32 0 -43 -6 -61 -30 -23 -30 -58 -39 -97 -24 -40 16 -60 129 -32
184 28 56 106 61 136 9 13 -23 22 -28 54 -27 36 0 38 2 32 25 -21 87 -141 140
-225 100z"/>
<path d="M1333 1602 c-4 -8 -6 -91 -6 -186 l-1 -171 122 -3 122 -3 0 36 c0 34
-1 35 -42 36 -24 1 -60 0 -80 -1 l-37 -1 -3 152 -3 152 -33 2 c-22 1 -36 -4
-39 -13z"/>
<path d="M1704 1606 c-92 -40 -128 -191 -69 -292 51 -87 185 -104 261 -33 56
53 68 179 23 258 -40 71 -136 101 -215 67z m106 -71 c72 -37 61 -202 -16 -221
-59 -15 -96 31 -97 118 0 62 30 107 81 117 2 1 16 -6 32 -14z"/>
<path d="M1999 1600 c-1 -8 -1 -68 -1 -133 1 -93 5 -126 19 -155 42 -85 169
-103 247 -35 35 31 41 59 41 208 0 118 -2 130 -17 129 -10 -1 -28 -2 -40 -3
-23 -1 -23 -4 -24 -127 -1 -113 -3 -128 -22 -146 -25 -26 -76 -28 -100 -4 -14
13 -18 42 -22 148 l-5 132 -38 1 c-26 0 -37 -4 -38 -15z"/>
<path d="M2378 1612 c-16 -3 -17 -21 -17 -188 l0 -184 90 0 c139 0 193 32 219
129 25 96 -10 190 -88 230 -22 12 -169 21 -204 13z m174 -92 c46 -36 44 -165
-2 -190 -17 -9 -66 -15 -96 -11 -6 1 -10 41 -10 111 l0 110 42 0 c26 0 51 -7
66 -20z"/>
<path d="M2728 1601 c-2 -9 -4 -92 -3 -186 l0 -170 99 -3 c113 -3 150 7 171
49 25 48 19 94 -16 123 l-30 26 20 22 c30 32 27 81 -7 119 -27 30 -29 31 -129
33 -85 2 -102 0 -105 -13z m165 -63 c9 -5 17 -20 17 -34 0 -26 -30 -44 -74
-44 -25 0 -35 24 -28 68 3 18 9 22 35 20 18 -1 40 -5 50 -10z m18 -148 c12 -7
19 -21 19 -40 0 -25 -5 -30 -35 -39 -19 -5 -43 -8 -52 -6 -10 2 -21 4 -24 4
-4 1 -9 21 -11 46 l-3 45 43 0 c24 0 52 -5 63 -10z"/>
<path d="M3059 1600 c-1 -16 -1 -301 0 -337 1 -23 3 -23 121 -23 l120 0 0 35
c0 26 -4 35 -17 36 -10 1 -45 2 -78 3 l-60 1 -5 150 -5 149 -38 1 c-26 0 -37
-4 -38 -15z"/>
<path d="M3435 1606 c-122 -54 -134 -276 -19 -347 64 -39 169 -25 217 29 49
55 57 179 16 252 -39 69 -138 99 -214 66z m119 -74 c4 -2 14 -19 22 -38 39
-93 -14 -199 -89 -180 -70 17 -84 165 -20 215 24 19 56 20 87 3z"/>
<path d="M3809 1598 c-57 -32 -84 -89 -84 -174 0 -60 4 -77 27 -112 16 -23 41
-48 57 -57 92 -47 206 -3 235 93 7 20 4 22 -29 22 -28 0 -42 -7 -62 -30 -25
-30 -60 -38 -98 -24 -38 15 -59 117 -35 178 23 62 106 71 138 16 13 -22 23
-28 54 -28 46 -1 49 13 12 67 -46 70 -142 92 -215 49z"/>
</g>
</svg>
